<?xml version="1.0" encoding="utf-8"?>
<svg xmlns="http://www.w3.org/2000/svg" xmlns:xlink="http://www.w3.org/1999/xlink" width="600" height="400" viewBox="0 0 2400 1600">
<defs>
  <clipPath id="clip190">
    <rect x="0" y="0" width="2400" height="1600"/>
  </clipPath>
</defs>
<path clip-path="url(#clip190)" d="M0 1600 L2400 1600 L2400 0 L0 0  Z" fill="#ffffff" fill-rule="evenodd" fill-opacity="1"/>
<defs>
  <clipPath id="clip191">
    <rect x="480" y="0" width="1681" height="1600"/>
  </clipPath>
</defs>
<path clip-path="url(#clip190)" d="M249.542 1423.18 L2352.76 1423.18 L2352.76 47.2441 L249.542 47.2441  Z" fill="#ffffff" fill-rule="evenodd" fill-opacity="1"/>
<defs>
  <clipPath id="clip192">
    <rect x="249" y="47" width="2104" height="1377"/>
  </clipPath>
</defs>
<polyline clip-path="url(#clip192)" style="stroke:#000000; stroke-linecap:round; stroke-linejoin:round; stroke-width:2; stroke-opacity:0.1; fill:none" points="249.542,1423.18 249.542,47.2441 "/>
<polyline clip-path="url(#clip192)" style="stroke:#000000; stroke-linecap:round; stroke-linejoin:round; stroke-width:2; stroke-opacity:0.1; fill:none" points="670.185,1423.18 670.185,47.2441 "/>
<polyline clip-path="url(#clip192)" style="stroke:#000000; stroke-linecap:round; stroke-linejoin:round; stroke-width:2; stroke-opacity:0.1; fill:none" points="1090.83,1423.18 1090.83,47.2441 "/>
<polyline clip-path="url(#clip192)" style="stroke:#000000; stroke-linecap:round; stroke-linejoin:round; stroke-width:2; stroke-opacity:0.1; fill:none" points="1511.47,1423.18 1511.47,47.2441 "/>
<polyline clip-path="url(#clip192)" style="stroke:#000000; stroke-linecap:round; stroke-linejoin:round; stroke-width:2; stroke-opacity:0.1; fill:none" points="1932.11,1423.18 1932.11,47.2441 "/>
<polyline clip-path="url(#clip192)" style="stroke:#000000; stroke-linecap:round; stroke-linejoin:round; stroke-width:2; stroke-opacity:0.1; fill:none" points="2352.76,1423.18 2352.76,47.2441 "/>
<polyline clip-path="url(#clip192)" style="stroke:#000000; stroke-linecap:round; stroke-linejoin:round; stroke-width:2; stroke-opacity:0.1; fill:none" points="249.542,1423.18 2352.76,1423.18 "/>
<polyline clip-path="url(#clip192)" style="stroke:#000000; stroke-linecap:round; stroke-linejoin:round; stroke-width:2; stroke-opacity:0.1; fill:none" points="249.542,1110.26 2352.76,1110.26 "/>
<polyline clip-path="url(#clip192)" style="stroke:#000000; stroke-linecap:round; stroke-linejoin:round; stroke-width:2; stroke-opacity:0.1; fill:none" points="249.542,797.336 2352.76,797.336 "/>
<polyline clip-path="url(#clip192)" style="stroke:#000000; stroke-linecap:round; stroke-linejoin:round; stroke-width:2; stroke-opacity:0.1; fill:none" points="249.542,484.415 2352.76,484.415 "/>
<polyline clip-path="url(#clip192)" style="stroke:#000000; stroke-linecap:round; stroke-linejoin:round; stroke-width:2; stroke-opacity:0.1; fill:none" points="249.542,171.493 2352.76,171.493 "/>
<polyline clip-path="url(#clip190)" style="stroke:#000000; stroke-linecap:round; stroke-linejoin:round; stroke-width:4; stroke-opacity:1; fill:none" points="249.542,1423.18 2352.76,1423.18 "/>
<polyline clip-path="url(#clip190)" style="stroke:#000000; stroke-linecap:round; stroke-linejoin:round; stroke-width:4; stroke-opacity:1; fill:none" points="249.542,1423.18 249.542,1404.28 "/>
<polyline clip-path="url(#clip190)" style="stroke:#000000; stroke-linecap:round; stroke-linejoin:round; stroke-width:4; stroke-opacity:1; fill:none" points="670.185,1423.18 670.185,1404.28 "/>
<polyline clip-path="url(#clip190)" style="stroke:#000000; stroke-linecap:round; stroke-linejoin:round; stroke-width:4; stroke-opacity:1; fill:none" points="1090.83,1423.18 1090.83,1404.28 "/>
<polyline clip-path="url(#clip190)" style="stroke:#000000; stroke-linecap:round; stroke-linejoin:round; stroke-width:4; stroke-opacity:1; fill:none" points="1511.47,1423.18 1511.47,1404.28 "/>
<polyline clip-path="url(#clip190)" style="stroke:#000000; stroke-linecap:round; stroke-linejoin:round; stroke-width:4; stroke-opacity:1; fill:none" points="1932.11,1423.18 1932.11,1404.28 "/>
<polyline clip-path="url(#clip190)" style="stroke:#000000; stroke-linecap:round; stroke-linejoin:round; stroke-width:4; stroke-opacity:1; fill:none" points="2352.76,1423.18 2352.76,1404.28 "/>
<path clip-path="url(#clip190)" d="M226.926 1454.1 Q223.315 1454.1 221.487 1457.66 Q219.681 1461.2 219.681 1468.33 Q219.681 1475.44 221.487 1479.01 Q223.315 1482.55 226.926 1482.55 Q230.561 1482.55 232.366 1479.01 Q234.195 1475.44 234.195 1468.33 Q234.195 1461.2 232.366 1457.66 Q230.561 1454.1 226.926 1454.1 M226.926 1450.39 Q232.737 1450.39 235.792 1455 Q238.871 1459.58 238.871 1468.33 Q238.871 1477.06 235.792 1481.67 Q232.737 1486.25 226.926 1486.25 Q221.116 1486.25 218.038 1481.67 Q214.982 1477.06 214.982 1468.33 Q214.982 1459.58 218.038 1455 Q221.116 1450.39 226.926 1450.39 Z" fill="#000000" fill-rule="nonzero" fill-opacity="1" /><path clip-path="url(#clip190)" d="M247.088 1479.7 L251.973 1479.7 L251.973 1485.58 L247.088 1485.58 L247.088 1479.7 Z" fill="#000000" fill-rule="nonzero" fill-opacity="1" /><path clip-path="url(#clip190)" d="M272.158 1454.1 Q268.547 1454.1 266.718 1457.66 Q264.912 1461.2 264.912 1468.33 Q264.912 1475.44 266.718 1479.01 Q268.547 1482.55 272.158 1482.55 Q275.792 1482.55 277.597 1479.01 Q279.426 1475.44 279.426 1468.33 Q279.426 1461.2 277.597 1457.66 Q275.792 1454.1 272.158 1454.1 M272.158 1450.39 Q277.968 1450.39 281.023 1455 Q284.102 1459.58 284.102 1468.33 Q284.102 1477.06 281.023 1481.67 Q277.968 1486.25 272.158 1486.25 Q266.347 1486.25 263.269 1481.67 Q260.213 1477.06 260.213 1468.33 Q260.213 1459.58 263.269 1455 Q266.347 1450.39 272.158 1450.39 Z" fill="#000000" fill-rule="nonzero" fill-opacity="1" /><path clip-path="url(#clip190)" d="M648.368 1454.1 Q644.757 1454.1 642.928 1457.66 Q641.122 1461.2 641.122 1468.33 Q641.122 1475.44 642.928 1479.01 Q644.757 1482.55 648.368 1482.55 Q652.002 1482.55 653.808 1479.01 Q655.636 1475.44 655.636 1468.33 Q655.636 1461.2 653.808 1457.66 Q652.002 1454.1 648.368 1454.1 M648.368 1450.39 Q654.178 1450.39 657.233 1455 Q660.312 1459.58 660.312 1468.33 Q660.312 1477.06 657.233 1481.67 Q654.178 1486.25 648.368 1486.25 Q642.558 1486.25 639.479 1481.67 Q636.423 1477.06 636.423 1468.33 Q636.423 1459.58 639.479 1455 Q642.558 1450.39 648.368 1450.39 Z" fill="#000000" fill-rule="nonzero" fill-opacity="1" /><path clip-path="url(#clip190)" d="M668.53 1479.7 L673.414 1479.7 L673.414 1485.58 L668.53 1485.58 L668.53 1479.7 Z" fill="#000000" fill-rule="nonzero" fill-opacity="1" /><path clip-path="url(#clip190)" d="M687.627 1481.64 L703.946 1481.64 L703.946 1485.58 L682.002 1485.58 L682.002 1481.64 Q684.664 1478.89 689.247 1474.26 Q693.854 1469.61 695.034 1468.27 Q697.28 1465.74 698.159 1464.01 Q699.062 1462.25 699.062 1460.56 Q699.062 1457.8 697.118 1456.07 Q695.196 1454.33 692.094 1454.33 Q689.895 1454.33 687.442 1455.09 Q685.011 1455.86 682.233 1457.41 L682.233 1452.69 Q685.057 1451.55 687.511 1450.97 Q689.965 1450.39 692.002 1450.39 Q697.372 1450.39 700.567 1453.08 Q703.761 1455.77 703.761 1460.26 Q703.761 1462.39 702.951 1464.31 Q702.164 1466.2 700.057 1468.8 Q699.479 1469.47 696.377 1472.69 Q693.275 1475.88 687.627 1481.64 Z" fill="#000000" fill-rule="nonzero" fill-opacity="1" /><path clip-path="url(#clip190)" d="M1067.97 1454.1 Q1064.36 1454.1 1062.53 1457.66 Q1060.72 1461.2 1060.72 1468.33 Q1060.72 1475.44 1062.53 1479.01 Q1064.36 1482.55 1067.97 1482.55 Q1071.6 1482.55 1073.41 1479.01 Q1075.24 1475.44 1075.24 1468.33 Q1075.24 1461.2 1073.41 1457.66 Q1071.6 1454.1 1067.97 1454.1 M1067.97 1450.39 Q1073.78 1450.39 1076.83 1455 Q1079.91 1459.58 1079.91 1468.33 Q1079.91 1477.06 1076.83 1481.67 Q1073.78 1486.25 1067.97 1486.25 Q1062.16 1486.25 1059.08 1481.67 Q1056.02 1477.06 1056.02 1468.33 Q1056.02 1459.58 1059.08 1455 Q1062.16 1450.39 1067.97 1450.39 Z" fill="#000000" fill-rule="nonzero" fill-opacity="1" /><path clip-path="url(#clip190)" d="M1088.13 1479.7 L1093.02 1479.7 L1093.02 1485.58 L1088.13 1485.58 L1088.13 1479.7 Z" fill="#000000" fill-rule="nonzero" fill-opacity="1" /><path clip-path="url(#clip190)" d="M1116.05 1455.09 L1104.24 1473.54 L1116.05 1473.54 L1116.05 1455.09 M1114.82 1451.02 L1120.7 1451.02 L1120.7 1473.54 L1125.63 1473.54 L1125.63 1477.43 L1120.7 1477.43 L1120.7 1485.58 L1116.05 1485.58 L1116.05 1477.43 L1100.45 1477.43 L1100.45 1472.92 L1114.82 1451.02 Z" fill="#000000" fill-rule="nonzero" fill-opacity="1" /><path clip-path="url(#clip190)" d="M1488.77 1454.1 Q1485.16 1454.1 1483.33 1457.66 Q1481.53 1461.2 1481.53 1468.33 Q1481.53 1475.44 1483.33 1479.01 Q1485.16 1482.55 1488.77 1482.55 Q1492.41 1482.55 1494.21 1479.01 Q1496.04 1475.44 1496.04 1468.33 Q1496.04 1461.2 1494.21 1457.66 Q1492.41 1454.1 1488.77 1454.1 M1488.77 1450.39 Q1494.58 1450.39 1497.64 1455 Q1500.72 1459.58 1500.72 1468.33 Q1500.72 1477.06 1497.64 1481.67 Q1494.58 1486.25 1488.77 1486.25 Q1482.96 1486.25 1479.88 1481.67 Q1476.83 1477.06 1476.83 1468.33 Q1476.83 1459.58 1479.88 1455 Q1482.96 1450.39 1488.77 1450.39 Z" fill="#000000" fill-rule="nonzero" fill-opacity="1" /><path clip-path="url(#clip190)" d="M1508.94 1479.7 L1513.82 1479.7 L1513.82 1485.58 L1508.94 1485.58 L1508.94 1479.7 Z" fill="#000000" fill-rule="nonzero" fill-opacity="1" /><path clip-path="url(#clip190)" d="M1534.58 1466.44 Q1531.44 1466.44 1529.58 1468.59 Q1527.75 1470.74 1527.75 1474.49 Q1527.75 1478.22 1529.58 1480.39 Q1531.44 1482.55 1534.58 1482.55 Q1537.73 1482.55 1539.56 1480.39 Q1541.41 1478.22 1541.41 1474.49 Q1541.41 1470.74 1539.56 1468.59 Q1537.73 1466.44 1534.58 1466.44 M1543.87 1451.78 L1543.87 1456.04 Q1542.11 1455.21 1540.3 1454.77 Q1538.52 1454.33 1536.76 1454.33 Q1532.13 1454.33 1529.68 1457.45 Q1527.25 1460.58 1526.9 1466.9 Q1528.26 1464.89 1530.32 1463.82 Q1532.38 1462.73 1534.86 1462.73 Q1540.07 1462.73 1543.08 1465.9 Q1546.11 1469.05 1546.11 1474.49 Q1546.11 1479.82 1542.96 1483.03 Q1539.82 1486.25 1534.58 1486.25 Q1528.59 1486.25 1525.42 1481.67 Q1522.25 1477.06 1522.25 1468.33 Q1522.25 1460.14 1526.13 1455.28 Q1530.02 1450.39 1536.57 1450.39 Q1538.33 1450.39 1540.12 1450.74 Q1541.92 1451.09 1543.87 1451.78 Z" fill="#000000" fill-rule="nonzero" fill-opacity="1" /><path clip-path="url(#clip190)" d="M1909.54 1454.1 Q1905.93 1454.1 1904.1 1457.66 Q1902.3 1461.2 1902.3 1468.33 Q1902.3 1475.44 1904.1 1479.01 Q1905.93 1482.55 1909.54 1482.55 Q1913.18 1482.55 1914.98 1479.01 Q1916.81 1475.44 1916.81 1468.33 Q1916.81 1461.2 1914.98 1457.66 Q1913.18 1454.1 1909.54 1454.1 M1909.54 1450.39 Q1915.35 1450.39 1918.41 1455 Q1921.49 1459.58 1921.49 1468.33 Q1921.49 1477.06 1918.41 1481.67 Q1915.35 1486.25 1909.54 1486.25 Q1903.73 1486.25 1900.65 1481.67 Q1897.6 1477.06 1897.6 1468.33 Q1897.6 1459.58 1900.65 1455 Q1903.73 1450.39 1909.54 1450.39 Z" fill="#000000" fill-rule="nonzero" fill-opacity="1" /><path clip-path="url(#clip190)" d="M1929.71 1479.7 L1934.59 1479.7 L1934.59 1485.58 L1929.71 1485.58 L1929.71 1479.7 Z" fill="#000000" fill-rule="nonzero" fill-opacity="1" /><path clip-path="url(#clip190)" d="M1954.78 1469.17 Q1951.44 1469.17 1949.52 1470.95 Q1947.62 1472.73 1947.62 1475.86 Q1947.62 1478.98 1949.52 1480.77 Q1951.44 1482.55 1954.78 1482.55 Q1958.11 1482.55 1960.03 1480.77 Q1961.95 1478.96 1961.95 1475.86 Q1961.95 1472.73 1960.03 1470.95 Q1958.13 1469.17 1954.78 1469.17 M1950.1 1467.18 Q1947.09 1466.44 1945.4 1464.38 Q1943.73 1462.32 1943.73 1459.35 Q1943.73 1455.21 1946.67 1452.8 Q1949.64 1450.39 1954.78 1450.39 Q1959.94 1450.39 1962.88 1452.8 Q1965.82 1455.21 1965.82 1459.35 Q1965.82 1462.32 1964.13 1464.38 Q1962.46 1466.44 1959.47 1467.18 Q1962.85 1467.96 1964.73 1470.26 Q1966.63 1472.55 1966.63 1475.86 Q1966.63 1480.88 1963.55 1483.57 Q1960.49 1486.25 1954.78 1486.25 Q1949.06 1486.25 1945.98 1483.57 Q1942.92 1480.88 1942.92 1475.86 Q1942.92 1472.55 1944.82 1470.26 Q1946.72 1467.96 1950.1 1467.18 M1948.39 1459.79 Q1948.39 1462.48 1950.05 1463.98 Q1951.74 1465.49 1954.78 1465.49 Q1957.78 1465.49 1959.47 1463.98 Q1961.19 1462.48 1961.19 1459.79 Q1961.19 1457.11 1959.47 1455.6 Q1957.78 1454.1 1954.78 1454.1 Q1951.74 1454.1 1950.05 1455.6 Q1948.39 1457.11 1948.39 1459.79 Z" fill="#000000" fill-rule="nonzero" fill-opacity="1" /><path clip-path="url(#clip190)" d="M2319.91 1481.64 L2327.55 1481.64 L2327.55 1455.28 L2319.24 1456.95 L2319.24 1452.69 L2327.5 1451.02 L2332.18 1451.02 L2332.18 1481.64 L2339.82 1481.64 L2339.82 1485.58 L2319.91 1485.58 L2319.91 1481.64 Z" fill="#000000" fill-rule="nonzero" fill-opacity="1" /><path clip-path="url(#clip190)" d="M2349.26 1479.7 L2354.14 1479.7 L2354.14 1485.58 L2349.26 1485.58 L2349.26 1479.7 Z" fill="#000000" fill-rule="nonzero" fill-opacity="1" /><path clip-path="url(#clip190)" d="M2374.33 1454.1 Q2370.72 1454.1 2368.89 1457.66 Q2367.08 1461.2 2367.08 1468.33 Q2367.08 1475.44 2368.89 1479.01 Q2370.72 1482.55 2374.33 1482.55 Q2377.96 1482.55 2379.77 1479.01 Q2381.6 1475.44 2381.6 1468.33 Q2381.6 1461.2 2379.77 1457.66 Q2377.96 1454.1 2374.33 1454.1 M2374.33 1450.39 Q2380.14 1450.39 2383.2 1455 Q2386.27 1459.58 2386.27 1468.33 Q2386.27 1477.06 2383.2 1481.67 Q2380.14 1486.25 2374.33 1486.25 Q2368.52 1486.25 2365.44 1481.67 Q2362.39 1477.06 2362.39 1468.33 Q2362.39 1459.58 2365.44 1455 Q2368.52 1450.39 2374.33 1450.39 Z" fill="#000000" fill-rule="nonzero" fill-opacity="1" /><path clip-path="url(#clip190)" d="M1318.57 1518.39 Q1318.57 1519.23 1318.22 1520.84 Q1317.09 1525.38 1312.87 1528.5 Q1312.16 1529.08 1310.91 1529.83 Q1312.42 1530.82 1313.74 1532.66 Q1315.71 1535.69 1315.71 1539.78 Q1315.71 1541.68 1315.19 1544 Q1313.74 1549.37 1308.65 1553.24 Q1303.53 1557.01 1297.45 1557.01 Q1294.16 1557.01 1291.91 1555.27 Q1289.68 1553.5 1288.82 1550.53 L1284.34 1568.6 Q1284.24 1569.05 1283.66 1569.05 L1283.34 1569.05 Q1282.66 1569.05 1282.66 1568.28 L1292.84 1527.7 Q1293.52 1524.96 1294.61 1522.39 Q1295.71 1519.81 1297.22 1517.49 Q1298.77 1515.17 1300.54 1513.46 Q1302.31 1511.73 1304.5 1510.73 Q1306.69 1509.7 1309.01 1509.7 Q1313.87 1509.7 1316.64 1513.01 Q1318.57 1515.36 1318.57 1518.39 M1314.87 1517.23 Q1314.87 1515.24 1314.06 1513.85 Q1312.42 1511.21 1308.94 1511.21 Q1306.85 1511.21 1304.85 1512.18 Q1302.89 1513.11 1301.31 1514.72 Q1299.73 1516.33 1298.38 1518.52 Q1297.03 1520.71 1296.03 1523.09 Q1295.06 1525.45 1294.42 1528.02 L1290.46 1544 Q1290.07 1545.7 1290.07 1547.22 Q1290.07 1550.82 1292.07 1553.17 Q1294.06 1555.53 1297.51 1555.53 Q1302.08 1555.53 1306.01 1552.11 Q1309.43 1549.05 1310.84 1543.67 Q1311.65 1540.29 1311.65 1537.94 Q1311.65 1535.36 1310.72 1533.37 Q1310.04 1531.76 1308.72 1530.79 Q1306.27 1531.66 1303.79 1531.66 Q1302.6 1531.66 1301.96 1531.63 Q1301.34 1531.6 1300.44 1531.47 Q1299.57 1531.34 1299.15 1530.98 Q1298.77 1530.63 1298.77 1530.08 Q1298.77 1529.76 1298.83 1529.63 Q1298.96 1529.12 1299.38 1528.76 Q1299.8 1528.41 1300.28 1528.25 Q1300.76 1528.05 1301.57 1527.96 Q1302.41 1527.86 1302.95 1527.86 Q1303.5 1527.83 1304.43 1527.83 Q1306.62 1527.83 1308.85 1528.7 Q1309.68 1528.25 1310.59 1527.44 Q1313.45 1524.77 1314.42 1520.52 Q1314.87 1518.94 1314.87 1517.23 M1306.75 1529.7 Q1305.4 1529.34 1304.37 1529.34 Q1300.6 1529.34 1300.41 1529.95 Q1300.41 1530.02 1300.54 1530.08 Q1300.67 1530.12 1300.96 1530.15 Q1301.28 1530.15 1301.54 1530.18 Q1301.83 1530.21 1302.31 1530.21 Q1302.79 1530.21 1303.05 1530.21 Q1303.34 1530.21 1303.86 1530.21 Q1305.14 1530.21 1306.75 1529.7 Z" fill="#000000" fill-rule="nonzero" fill-opacity="1" /><polyline clip-path="url(#clip190)" style="stroke:#000000; stroke-linecap:round; stroke-linejoin:round; stroke-width:4; stroke-opacity:1; fill:none" points="249.542,1423.18 249.542,47.2441 "/>
<polyline clip-path="url(#clip190)" style="stroke:#000000; stroke-linecap:round; stroke-linejoin:round; stroke-width:4; stroke-opacity:1; fill:none" points="249.542,1423.18 268.44,1423.18 "/>
<polyline clip-path="url(#clip190)" style="stroke:#000000; stroke-linecap:round; stroke-linejoin:round; stroke-width:4; stroke-opacity:1; fill:none" points="249.542,1110.26 268.44,1110.26 "/>
<polyline clip-path="url(#clip190)" style="stroke:#000000; stroke-linecap:round; stroke-linejoin:round; stroke-width:4; stroke-opacity:1; fill:none" points="249.542,797.336 268.44,797.336 "/>
<polyline clip-path="url(#clip190)" style="stroke:#000000; stroke-linecap:round; stroke-linejoin:round; stroke-width:4; stroke-opacity:1; fill:none" points="249.542,484.415 268.44,484.415 "/>
<polyline clip-path="url(#clip190)" style="stroke:#000000; stroke-linecap:round; stroke-linejoin:round; stroke-width:4; stroke-opacity:1; fill:none" points="249.542,171.493 268.44,171.493 "/>
<path clip-path="url(#clip190)" d="M126.205 1408.98 Q122.593 1408.98 120.765 1412.54 Q118.959 1416.08 118.959 1423.21 Q118.959 1430.32 120.765 1433.89 Q122.593 1437.43 126.205 1437.43 Q129.839 1437.43 131.644 1433.89 Q133.473 1430.32 133.473 1423.21 Q133.473 1416.08 131.644 1412.54 Q129.839 1408.98 126.205 1408.98 M126.205 1405.27 Q132.015 1405.27 135.07 1409.88 Q138.149 1414.46 138.149 1423.21 Q138.149 1431.94 135.07 1436.55 Q132.015 1441.13 126.205 1441.13 Q120.394 1441.13 117.316 1436.55 Q114.26 1431.94 114.26 1423.21 Q114.26 1414.46 117.316 1409.88 Q120.394 1405.27 126.205 1405.27 Z" fill="#000000" fill-rule="nonzero" fill-opacity="1" /><path clip-path="url(#clip190)" d="M146.366 1434.58 L151.251 1434.58 L151.251 1440.46 L146.366 1440.46 L146.366 1434.58 Z" fill="#000000" fill-rule="nonzero" fill-opacity="1" /><path clip-path="url(#clip190)" d="M171.436 1408.98 Q167.825 1408.98 165.996 1412.54 Q164.19 1416.08 164.19 1423.21 Q164.19 1430.32 165.996 1433.89 Q167.825 1437.43 171.436 1437.43 Q175.07 1437.43 176.876 1433.89 Q178.704 1430.32 178.704 1423.21 Q178.704 1416.08 176.876 1412.54 Q175.07 1408.98 171.436 1408.98 M171.436 1405.27 Q177.246 1405.27 180.301 1409.88 Q183.38 1414.46 183.38 1423.21 Q183.38 1431.94 180.301 1436.55 Q177.246 1441.13 171.436 1441.13 Q165.626 1441.13 162.547 1436.55 Q159.491 1431.94 159.491 1423.21 Q159.491 1414.46 162.547 1409.88 Q165.626 1405.27 171.436 1405.27 Z" fill="#000000" fill-rule="nonzero" fill-opacity="1" /><path clip-path="url(#clip190)" d="M201.598 1408.98 Q197.987 1408.98 196.158 1412.54 Q194.352 1416.08 194.352 1423.21 Q194.352 1430.32 196.158 1433.89 Q197.987 1437.43 201.598 1437.43 Q205.232 1437.43 207.037 1433.89 Q208.866 1430.32 208.866 1423.21 Q208.866 1416.08 207.037 1412.54 Q205.232 1408.98 201.598 1408.98 M201.598 1405.27 Q207.408 1405.27 210.463 1409.88 Q213.542 1414.46 213.542 1423.21 Q213.542 1431.94 210.463 1436.55 Q207.408 1441.13 201.598 1441.13 Q195.787 1441.13 192.709 1436.55 Q189.653 1431.94 189.653 1423.21 Q189.653 1414.46 192.709 1409.88 Q195.787 1405.27 201.598 1405.27 Z" fill="#000000" fill-rule="nonzero" fill-opacity="1" /><path clip-path="url(#clip190)" d="M127.2 1096.06 Q123.589 1096.06 121.76 1099.62 Q119.955 1103.16 119.955 1110.29 Q119.955 1117.4 121.76 1120.96 Q123.589 1124.51 127.2 1124.51 Q130.834 1124.51 132.64 1120.96 Q134.468 1117.4 134.468 1110.29 Q134.468 1103.16 132.64 1099.62 Q130.834 1096.06 127.2 1096.06 M127.2 1092.35 Q133.01 1092.35 136.066 1096.96 Q139.144 1101.54 139.144 1110.29 Q139.144 1119.02 136.066 1123.63 Q133.01 1128.21 127.2 1128.21 Q121.39 1128.21 118.311 1123.63 Q115.256 1119.02 115.256 1110.29 Q115.256 1101.54 118.311 1096.96 Q121.39 1092.35 127.2 1092.35 Z" fill="#000000" fill-rule="nonzero" fill-opacity="1" /><path clip-path="url(#clip190)" d="M147.362 1121.66 L152.246 1121.66 L152.246 1127.54 L147.362 1127.54 L147.362 1121.66 Z" fill="#000000" fill-rule="nonzero" fill-opacity="1" /><path clip-path="url(#clip190)" d="M166.459 1123.6 L182.778 1123.6 L182.778 1127.54 L160.834 1127.54 L160.834 1123.6 Q163.496 1120.85 168.079 1116.22 Q172.686 1111.57 173.866 1110.22 Q176.112 1107.7 176.991 1105.96 Q177.894 1104.2 177.894 1102.52 Q177.894 1099.76 175.95 1098.02 Q174.028 1096.29 170.927 1096.29 Q168.727 1096.29 166.274 1097.05 Q163.843 1097.82 161.065 1099.37 L161.065 1094.64 Q163.89 1093.51 166.343 1092.93 Q168.797 1092.35 170.834 1092.35 Q176.204 1092.35 179.399 1095.04 Q182.593 1097.72 182.593 1102.21 Q182.593 1104.34 181.783 1106.27 Q180.996 1108.16 178.889 1110.76 Q178.311 1111.43 175.209 1114.64 Q172.107 1117.84 166.459 1123.6 Z" fill="#000000" fill-rule="nonzero" fill-opacity="1" /><path clip-path="url(#clip190)" d="M192.639 1092.98 L210.996 1092.98 L210.996 1096.91 L196.922 1096.91 L196.922 1105.39 Q197.94 1105.04 198.959 1104.88 Q199.977 1104.69 200.996 1104.69 Q206.783 1104.69 210.162 1107.86 Q213.542 1111.03 213.542 1116.45 Q213.542 1122.03 210.07 1125.13 Q206.598 1128.21 200.278 1128.21 Q198.102 1128.21 195.834 1127.84 Q193.588 1127.47 191.181 1126.73 L191.181 1122.03 Q193.264 1123.16 195.487 1123.72 Q197.709 1124.27 200.186 1124.27 Q204.19 1124.27 206.528 1122.17 Q208.866 1120.06 208.866 1116.45 Q208.866 1112.84 206.528 1110.73 Q204.19 1108.63 200.186 1108.63 Q198.311 1108.63 196.436 1109.04 Q194.584 1109.46 192.639 1110.34 L192.639 1092.98 Z" fill="#000000" fill-rule="nonzero" fill-opacity="1" /><path clip-path="url(#clip190)" d="M126.205 783.135 Q122.593 783.135 120.765 786.7 Q118.959 790.242 118.959 797.371 Q118.959 804.478 120.765 808.042 Q122.593 811.584 126.205 811.584 Q129.839 811.584 131.644 808.042 Q133.473 804.478 133.473 797.371 Q133.473 790.242 131.644 786.7 Q129.839 783.135 126.205 783.135 M126.205 779.431 Q132.015 779.431 135.07 784.038 Q138.149 788.621 138.149 797.371 Q138.149 806.098 135.07 810.704 Q132.015 815.288 126.205 815.288 Q120.394 815.288 117.316 810.704 Q114.26 806.098 114.26 797.371 Q114.26 788.621 117.316 784.038 Q120.394 779.431 126.205 779.431 Z" fill="#000000" fill-rule="nonzero" fill-opacity="1" /><path clip-path="url(#clip190)" d="M146.366 808.737 L151.251 808.737 L151.251 814.616 L146.366 814.616 L146.366 808.737 Z" fill="#000000" fill-rule="nonzero" fill-opacity="1" /><path clip-path="url(#clip190)" d="M161.482 780.056 L179.839 780.056 L179.839 783.992 L165.765 783.992 L165.765 792.464 Q166.783 792.117 167.802 791.955 Q168.82 791.769 169.839 791.769 Q175.626 791.769 179.005 794.941 Q182.385 798.112 182.385 803.529 Q182.385 809.107 178.913 812.209 Q175.44 815.288 169.121 815.288 Q166.945 815.288 164.677 814.917 Q162.431 814.547 160.024 813.806 L160.024 809.107 Q162.107 810.241 164.329 810.797 Q166.552 811.353 169.028 811.353 Q173.033 811.353 175.371 809.246 Q177.709 807.14 177.709 803.529 Q177.709 799.917 175.371 797.811 Q173.033 795.705 169.028 795.705 Q167.153 795.705 165.278 796.121 Q163.427 796.538 161.482 797.417 L161.482 780.056 Z" fill="#000000" fill-rule="nonzero" fill-opacity="1" /><path clip-path="url(#clip190)" d="M201.598 783.135 Q197.987 783.135 196.158 786.7 Q194.352 790.242 194.352 797.371 Q194.352 804.478 196.158 808.042 Q197.987 811.584 201.598 811.584 Q205.232 811.584 207.037 808.042 Q208.866 804.478 208.866 797.371 Q208.866 790.242 207.037 786.7 Q205.232 783.135 201.598 783.135 M201.598 779.431 Q207.408 779.431 210.463 784.038 Q213.542 788.621 213.542 797.371 Q213.542 806.098 210.463 810.704 Q207.408 815.288 201.598 815.288 Q195.787 815.288 192.709 810.704 Q189.653 806.098 189.653 797.371 Q189.653 788.621 192.709 784.038 Q195.787 779.431 201.598 779.431 Z" fill="#000000" fill-rule="nonzero" fill-opacity="1" /><path clip-path="url(#clip190)" d="M127.2 470.213 Q123.589 470.213 121.76 473.778 Q119.955 477.32 119.955 484.449 Q119.955 491.556 121.76 495.121 Q123.589 498.662 127.2 498.662 Q130.834 498.662 132.64 495.121 Q134.468 491.556 134.468 484.449 Q134.468 477.32 132.64 473.778 Q130.834 470.213 127.2 470.213 M127.2 466.51 Q133.01 466.51 136.066 471.116 Q139.144 475.7 139.144 484.449 Q139.144 493.176 136.066 497.783 Q133.01 502.366 127.2 502.366 Q121.39 502.366 118.311 497.783 Q115.256 493.176 115.256 484.449 Q115.256 475.7 118.311 471.116 Q121.39 466.51 127.2 466.51 Z" fill="#000000" fill-rule="nonzero" fill-opacity="1" /><path clip-path="url(#clip190)" d="M147.362 495.815 L152.246 495.815 L152.246 501.695 L147.362 501.695 L147.362 495.815 Z" fill="#000000" fill-rule="nonzero" fill-opacity="1" /><path clip-path="url(#clip190)" d="M161.251 467.135 L183.473 467.135 L183.473 469.126 L170.927 501.695 L166.042 501.695 L177.848 471.07 L161.251 471.07 L161.251 467.135 Z" fill="#000000" fill-rule="nonzero" fill-opacity="1" /><path clip-path="url(#clip190)" d="M192.639 467.135 L210.996 467.135 L210.996 471.07 L196.922 471.07 L196.922 479.542 Q197.94 479.195 198.959 479.033 Q199.977 478.848 200.996 478.848 Q206.783 478.848 210.162 482.019 Q213.542 485.19 213.542 490.607 Q213.542 496.186 210.07 499.287 Q206.598 502.366 200.278 502.366 Q198.102 502.366 195.834 501.996 Q193.588 501.625 191.181 500.885 L191.181 496.186 Q193.264 497.32 195.487 497.875 Q197.709 498.431 200.186 498.431 Q204.19 498.431 206.528 496.324 Q208.866 494.218 208.866 490.607 Q208.866 486.996 206.528 484.889 Q204.19 482.783 200.186 482.783 Q198.311 482.783 196.436 483.2 Q194.584 483.616 192.639 484.496 L192.639 467.135 Z" fill="#000000" fill-rule="nonzero" fill-opacity="1" /><path clip-path="url(#clip190)" d="M117.015 184.838 L124.654 184.838 L124.654 158.472 L116.343 160.139 L116.343 155.88 L124.607 154.213 L129.283 154.213 L129.283 184.838 L136.922 184.838 L136.922 188.773 L117.015 188.773 L117.015 184.838 Z" fill="#000000" fill-rule="nonzero" fill-opacity="1" /><path clip-path="url(#clip190)" d="M146.366 182.893 L151.251 182.893 L151.251 188.773 L146.366 188.773 L146.366 182.893 Z" fill="#000000" fill-rule="nonzero" fill-opacity="1" /><path clip-path="url(#clip190)" d="M171.436 157.292 Q167.825 157.292 165.996 160.857 Q164.19 164.398 164.19 171.528 Q164.19 178.634 165.996 182.199 Q167.825 185.741 171.436 185.741 Q175.07 185.741 176.876 182.199 Q178.704 178.634 178.704 171.528 Q178.704 164.398 176.876 160.857 Q175.07 157.292 171.436 157.292 M171.436 153.588 Q177.246 153.588 180.301 158.195 Q183.38 162.778 183.38 171.528 Q183.38 180.255 180.301 184.861 Q177.246 189.444 171.436 189.444 Q165.626 189.444 162.547 184.861 Q159.491 180.255 159.491 171.528 Q159.491 162.778 162.547 158.195 Q165.626 153.588 171.436 153.588 Z" fill="#000000" fill-rule="nonzero" fill-opacity="1" /><path clip-path="url(#clip190)" d="M201.598 157.292 Q197.987 157.292 196.158 160.857 Q194.352 164.398 194.352 171.528 Q194.352 178.634 196.158 182.199 Q197.987 185.741 201.598 185.741 Q205.232 185.741 207.037 182.199 Q208.866 178.634 208.866 171.528 Q208.866 164.398 207.037 160.857 Q205.232 157.292 201.598 157.292 M201.598 153.588 Q207.408 153.588 210.463 158.195 Q213.542 162.778 213.542 171.528 Q213.542 180.255 210.463 184.861 Q207.408 189.444 201.598 189.444 Q195.787 189.444 192.709 184.861 Q189.653 180.255 189.653 171.528 Q189.653 162.778 192.709 158.195 Q195.787 153.588 201.598 153.588 Z" fill="#000000" fill-rule="nonzero" fill-opacity="1" /><path clip-path="url(#clip190)" d="M39.7075 831.676 L37.6463 831.676 Q37.8396 828.713 37.8396 825.267 Q37.8396 824.011 37.6463 818.085 L39.7075 818.085 Q39.7075 821.853 41.4144 821.853 Q41.6721 821.853 42.5416 821.467 L60.9312 814.059 L44.1197 807.328 Q42.9925 806.942 42.5416 806.942 Q41.4144 806.942 40.6093 807.715 Q39.7719 808.455 39.7075 810.098 L37.6463 810.098 Q37.8396 806.749 37.8396 804.365 Q37.8396 801.66 37.6463 799.438 L39.7075 799.438 Q39.7075 801.402 40.6093 802.787 Q41.4788 804.172 42.2518 804.623 Q42.9925 805.042 44.1197 805.492 L65.5688 814.124 Q66.8248 814.639 66.8248 815.509 Q66.8248 816.088 66.5672 816.346 Q66.3417 816.571 65.5688 816.893 L42.1551 826.394 Q40.5126 827.038 40.1262 827.876 Q39.7075 828.713 39.7075 831.676 Z" fill="#000000" fill-rule="nonzero" fill-opacity="1" /><path clip-path="url(#clip190)" d="M59.804 793.936 Q54.2001 793.936 51.2372 787.334 Q49.337 783.373 48.854 775.193 L46.4385 775.193 Q42.3484 775.193 40.1906 777.35 Q38.0006 779.476 38.0006 782.181 Q38.0006 787.012 41.0279 789.331 Q41.0923 787.366 42.0907 786.658 Q43.0569 785.949 44.0553 785.949 Q45.3757 785.949 46.2453 786.787 Q47.0826 787.592 47.0826 788.977 Q47.0826 790.297 46.2775 791.167 Q45.4401 792.036 43.9909 792.036 Q40.7703 792.036 38.6447 789.138 Q36.5191 786.207 36.5191 782.052 Q36.5191 776.642 40.1584 773.035 Q41.2856 771.908 42.7348 771.36 Q44.1841 770.78 45.1503 770.716 Q46.0843 770.652 47.9522 770.652 L61.1244 770.652 Q61.5109 770.652 62.155 770.523 Q62.7991 770.394 63.6364 769.814 Q64.4416 769.202 64.4416 768.204 Q64.4416 765.821 60.2226 765.853 L56.519 765.853 L56.519 764.178 L60.2226 764.178 Q63.7331 764.178 65.1179 766.046 Q66.4706 767.882 66.4706 769.589 Q66.4706 771.779 64.8603 773.164 Q63.25 774.548 61.06 774.742 Q63.572 775.74 65.2145 778.027 Q66.8248 780.281 66.8248 783.373 Q66.8248 785.756 66.2129 788.011 Q65.6332 790.233 63.9907 792.101 Q62.316 793.936 59.804 793.936 M59.7395 788.848 Q62.1872 788.848 63.7653 787.109 Q65.3434 785.37 65.3434 782.922 Q65.3434 780.152 63.2178 777.672 Q61.06 775.193 56.841 775.193 L50.2388 775.193 Q50.4965 782.503 53.4272 785.692 Q56.3257 788.848 59.7395 788.848 Z" fill="#000000" fill-rule="nonzero" fill-opacity="1" /><path clip-path="url(#clip190)" d="M66.0841 762.856 L64.0551 762.856 Q64.0551 759.346 63.6364 758.541 Q63.1856 757.703 61.06 757.703 L43.379 757.703 Q40.9313 757.703 40.3194 758.573 Q39.7075 759.41 39.7075 762.856 L37.6463 762.856 L36.9378 753.678 L44.1841 753.678 Q41.35 752.744 39.16 750.779 Q36.9378 748.782 36.9378 745.562 Q36.9378 743.436 38.1294 742.084 Q39.321 740.699 40.9635 740.699 Q42.4128 740.699 43.1535 741.6 Q43.8621 742.47 43.8621 743.533 Q43.8621 744.724 43.1213 745.562 Q42.3484 746.367 41.0279 746.367 Q40.2228 746.367 39.6109 746.013 Q38.9668 745.626 38.7413 745.336 Q38.5159 745.046 38.4515 744.853 Q38.3871 744.982 38.3871 745.562 Q38.3871 749.201 42.0263 751.294 Q45.6334 753.356 50.7863 753.356 L60.9312 753.356 Q62.8313 753.356 63.4432 752.583 Q64.0551 751.778 64.0551 748.331 L64.0551 746.947 L66.0841 746.947 Q65.8909 749.588 65.8909 755.32 Q65.8909 756.125 65.9231 757.381 Q65.9553 758.637 66.0197 760.28 Q66.0841 761.922 66.0841 762.856 Z" fill="#000000" fill-rule="nonzero" fill-opacity="1" /><path clip-path="url(#clip190)" d="M49.5947 737.338 Q38.4515 737.338 29.466 733.183 Q25.6979 731.412 22.5418 728.932 Q19.3856 726.452 18.0007 724.809 Q16.6159 723.167 16.6159 722.716 Q16.6159 722.072 17.26 722.04 Q17.5821 722.04 18.3872 722.909 Q29.2084 733.537 49.5947 733.505 Q70.0454 733.505 80.4479 723.167 Q81.5751 722.04 81.9294 722.04 Q82.5735 722.04 82.5735 722.716 Q82.5735 723.167 81.2531 724.745 Q79.9326 726.323 76.9053 728.771 Q73.8779 731.218 70.1742 732.99 Q61.1888 737.338 49.5947 737.338 Z" fill="#000000" fill-rule="nonzero" fill-opacity="1" /><path clip-path="url(#clip190)" d="M23.0249 668.144 L34.4257 669.465 Q35.4563 669.561 35.7784 669.722 Q36.0682 669.884 36.0682 670.399 Q36.0682 670.785 35.8428 671.011 Q35.5851 671.204 35.2953 671.204 Q35.1343 671.204 34.7156 671.172 Q34.2969 671.14 34.1037 671.14 Q32.1069 670.85 30.5932 670.85 Q27.7913 670.85 26.2777 671.687 Q24.7318 672.524 24.0232 674.682 Q23.2825 676.84 23.2825 680.898 L23.2825 690.173 Q23.2825 692.299 23.669 692.814 Q24.0554 693.297 25.859 693.748 L41.7365 697.709 L41.7365 691.494 Q41.7365 689.175 41.4466 687.79 Q41.1568 686.373 40.3516 685.439 Q39.5143 684.473 38.3871 683.957 Q37.2598 683.41 35.2309 682.862 Q34.5546 682.701 34.2969 682.54 Q34.0393 682.347 34.0393 681.929 Q34.0393 681.606 34.2647 681.381 Q34.4579 681.156 34.7478 681.156 L50.1744 684.924 Q50.9473 685.117 51.2372 685.31 Q51.4948 685.503 51.4948 685.89 Q51.4948 686.309 51.2694 686.534 Q51.044 686.759 50.7863 686.759 Q50.5287 686.759 50.0456 686.566 Q47.9522 686.083 46.825 686.083 Q46.1809 686.083 45.8588 686.147 Q45.5368 686.18 45.0859 686.47 Q44.6028 686.727 44.3773 687.307 Q44.1519 687.887 43.9909 688.982 Q43.7976 690.077 43.7976 691.719 L43.7976 698.225 L61.8007 702.734 Q62.9923 703.056 63.3144 703.056 Q63.6687 703.056 63.7975 702.895 Q63.8941 702.701 63.9585 702.186 Q64.0551 701.606 64.0551 700.737 L64.0551 691.107 Q64.0551 688.982 63.8619 687.275 Q63.6687 685.568 63.1856 684.151 Q62.7025 682.701 62.155 681.606 Q61.6075 680.511 60.6091 679.481 Q59.5785 678.45 58.6767 677.742 Q57.7428 677.001 56.1647 676.131 Q54.5866 675.262 53.2984 674.65 Q51.9779 674.038 49.8523 673.104 Q49.0794 672.846 49.0794 672.235 Q49.0794 671.88 49.2726 671.687 Q49.4337 671.494 49.5947 671.462 L49.7879 671.462 Q50.3998 671.655 50.7219 671.784 L64.9569 677.838 Q65.762 678.193 65.9231 678.482 Q66.0841 678.772 66.0841 679.9 L66.0841 714.134 Q66.0841 714.907 66.0519 715.229 Q66.0197 715.519 65.8587 715.745 Q65.6654 715.97 65.2789 715.97 Q64.667 715.97 64.4094 715.712 Q64.1195 715.455 64.0873 715.165 Q64.0551 714.875 64.0551 714.134 Q64.0551 712.524 63.9585 711.558 Q63.8619 710.592 63.7331 709.98 Q63.572 709.336 63.1212 709.014 Q62.6703 708.659 62.2838 708.498 Q61.8651 708.337 60.9312 708.112 L26.0522 699.416 Q24.8606 699.094 24.4741 699.094 Q24.0554 699.094 23.7978 699.384 Q23.5402 699.642 23.4435 700.35 Q23.3147 701.059 23.3147 701.639 Q23.2825 702.186 23.2825 703.378 Q23.2825 704.151 23.2503 704.473 Q23.2181 704.762 23.0571 704.988 Q22.896 705.213 22.5418 705.213 Q21.64 705.213 21.4468 704.827 Q21.2213 704.408 21.2213 703.249 L21.2213 669.948 Q21.2213 668.627 21.5112 668.338 Q21.7688 668.016 23.0249 668.144 Z" fill="#000000" fill-rule="nonzero" fill-opacity="1" /><path clip-path="url(#clip190)" d="M81.9294 664.075 Q81.6073 664.075 80.8022 663.238 Q69.981 652.61 49.5947 652.61 Q29.144 652.61 18.8059 662.819 Q17.6143 664.075 17.26 664.075 Q16.6159 664.075 16.6159 663.431 Q16.6159 662.98 17.9363 661.402 Q19.2568 659.792 22.2841 657.377 Q25.3115 654.929 29.0151 653.125 Q38.0006 648.778 49.5947 648.778 Q60.7379 648.778 69.7234 652.932 Q73.4914 654.704 76.6476 657.183 Q79.8038 659.663 81.1886 661.306 Q82.5735 662.948 82.5735 663.431 Q82.5735 664.075 81.9294 664.075 Z" fill="#000000" fill-rule="nonzero" fill-opacity="1" /><polyline clip-path="url(#clip192)" style="stroke:#009af9; stroke-linecap:round; stroke-linejoin:round; stroke-width:4; stroke-opacity:1; fill:none" points="459.863,1398.8 480.896,1393.38 501.928,1387.32 522.96,1380.59 543.992,1373.17 565.024,1365.01 586.056,1356.08 607.088,1346.33 628.121,1335.7 649.153,1324.15 670.185,1311.61 691.217,1298 712.249,1283.24 733.281,1267.23 754.313,1249.87 775.346,1231.05 796.378,1210.65 817.41,1188.55 838.442,1164.61 859.474,1138.69 880.506,1110.59 901.538,1080.06 922.57,1046.78 943.603,1010.29 964.635,970.087 985.667,925.631 1006.7,876.455 1027.73,822.249 1048.76,762.89 1069.8,698.388 1090.83,628.785 1111.86,554.142 1132.89,474.744 1153.92,391.59 1174.96,307.009 1195.99,225.1 1217.02,151.675 1238.05,93.534 1259.08,57.1737 1280.12,47.2441 1301.15,65.2537 1322.18,109.043 1343.21,173.309 1364.25,250.998 1385.28,334.955 1406.31,419.22 1427.34,499.637 1448.37,573.852 1469.41,640.941 1490.44,700.932 1511.47,754.381 1532.5,802.061 1553.53,844.776 1574.57,883.261 1595.6,918.144 1616.63,949.942 1637.66,979.074 1658.7,1005.88 1679.73,1030.63 1700.76,1053.55 1721.79,1074.83 1742.82,1094.64 1763.86,1113.1 1784.89,1130.34 1805.92,1146.46 1826.95,1161.55 1847.98,1175.69 1869.02,1188.96 1890.05,1201.43 1911.08,1213.14 1932.11,1224.17 1953.15,1234.55 1974.18,1244.33 1995.21,1253.55 2016.24,1262.25 2037.27,1270.46 2058.31,1278.22 2079.34,1285.55 2100.37,1292.48 2121.4,1299.04 2142.43,1305.24 2163.47,1311.11 2184.5,1316.67 2205.53,1321.94 2226.56,1326.94 2247.6,1331.67 2268.63,1336.16 2289.66,1340.42 2310.69,1344.45 2331.72,1348.29 2352.76,1351.92 "/>
</svg>
