<?xml version="1.0" encoding="utf-8"?>
<svg xmlns="http://www.w3.org/2000/svg" xmlns:xlink="http://www.w3.org/1999/xlink" width="600" height="400" viewBox="0 0 2400 1600">
<defs>
  <clipPath id="clip630">
    <rect x="0" y="0" width="2400" height="1600"/>
  </clipPath>
</defs>
<path clip-path="url(#clip630)" d="M0 1600 L2400 1600 L2400 0 L0 0  Z" fill="#ffffff" fill-rule="evenodd" fill-opacity="1"/>
<defs>
  <clipPath id="clip631">
    <rect x="480" y="0" width="1681" height="1600"/>
  </clipPath>
</defs>
<path clip-path="url(#clip630)" d="M257.69 1423.18 L2352.76 1423.18 L2352.76 47.2441 L257.69 47.2441  Z" fill="#ffffff" fill-rule="evenodd" fill-opacity="1"/>
<defs>
  <clipPath id="clip632">
    <rect x="257" y="47" width="2096" height="1377"/>
  </clipPath>
</defs>
<polyline clip-path="url(#clip632)" style="stroke:#000000; stroke-linecap:round; stroke-linejoin:round; stroke-width:2; stroke-opacity:0.1; fill:none" points="257.69,1423.18 257.69,47.2441 "/>
<polyline clip-path="url(#clip632)" style="stroke:#000000; stroke-linecap:round; stroke-linejoin:round; stroke-width:2; stroke-opacity:0.1; fill:none" points="676.703,1423.18 676.703,47.2441 "/>
<polyline clip-path="url(#clip632)" style="stroke:#000000; stroke-linecap:round; stroke-linejoin:round; stroke-width:2; stroke-opacity:0.1; fill:none" points="1095.72,1423.18 1095.72,47.2441 "/>
<polyline clip-path="url(#clip632)" style="stroke:#000000; stroke-linecap:round; stroke-linejoin:round; stroke-width:2; stroke-opacity:0.1; fill:none" points="1514.73,1423.18 1514.73,47.2441 "/>
<polyline clip-path="url(#clip632)" style="stroke:#000000; stroke-linecap:round; stroke-linejoin:round; stroke-width:2; stroke-opacity:0.1; fill:none" points="1933.74,1423.18 1933.74,47.2441 "/>
<polyline clip-path="url(#clip632)" style="stroke:#000000; stroke-linecap:round; stroke-linejoin:round; stroke-width:2; stroke-opacity:0.1; fill:none" points="2352.76,1423.18 2352.76,47.2441 "/>
<polyline clip-path="url(#clip632)" style="stroke:#000000; stroke-linecap:round; stroke-linejoin:round; stroke-width:2; stroke-opacity:0.1; fill:none" points="257.69,1390.91 2352.76,1390.91 "/>
<polyline clip-path="url(#clip632)" style="stroke:#000000; stroke-linecap:round; stroke-linejoin:round; stroke-width:2; stroke-opacity:0.1; fill:none" points="257.69,1100.63 2352.76,1100.63 "/>
<polyline clip-path="url(#clip632)" style="stroke:#000000; stroke-linecap:round; stroke-linejoin:round; stroke-width:2; stroke-opacity:0.1; fill:none" points="257.69,810.342 2352.76,810.342 "/>
<polyline clip-path="url(#clip632)" style="stroke:#000000; stroke-linecap:round; stroke-linejoin:round; stroke-width:2; stroke-opacity:0.1; fill:none" points="257.69,520.058 2352.76,520.058 "/>
<polyline clip-path="url(#clip632)" style="stroke:#000000; stroke-linecap:round; stroke-linejoin:round; stroke-width:2; stroke-opacity:0.1; fill:none" points="257.69,229.773 2352.76,229.773 "/>
<polyline clip-path="url(#clip630)" style="stroke:#000000; stroke-linecap:round; stroke-linejoin:round; stroke-width:4; stroke-opacity:1; fill:none" points="257.69,1423.18 2352.76,1423.18 "/>
<polyline clip-path="url(#clip630)" style="stroke:#000000; stroke-linecap:round; stroke-linejoin:round; stroke-width:4; stroke-opacity:1; fill:none" points="257.69,1423.18 257.69,1404.28 "/>
<polyline clip-path="url(#clip630)" style="stroke:#000000; stroke-linecap:round; stroke-linejoin:round; stroke-width:4; stroke-opacity:1; fill:none" points="676.703,1423.18 676.703,1404.28 "/>
<polyline clip-path="url(#clip630)" style="stroke:#000000; stroke-linecap:round; stroke-linejoin:round; stroke-width:4; stroke-opacity:1; fill:none" points="1095.72,1423.18 1095.72,1404.28 "/>
<polyline clip-path="url(#clip630)" style="stroke:#000000; stroke-linecap:round; stroke-linejoin:round; stroke-width:4; stroke-opacity:1; fill:none" points="1514.73,1423.18 1514.73,1404.28 "/>
<polyline clip-path="url(#clip630)" style="stroke:#000000; stroke-linecap:round; stroke-linejoin:round; stroke-width:4; stroke-opacity:1; fill:none" points="1933.74,1423.18 1933.74,1404.28 "/>
<polyline clip-path="url(#clip630)" style="stroke:#000000; stroke-linecap:round; stroke-linejoin:round; stroke-width:4; stroke-opacity:1; fill:none" points="2352.76,1423.18 2352.76,1404.28 "/>
<path clip-path="url(#clip630)" d="M235.075 1454.1 Q231.463 1454.1 229.635 1457.66 Q227.829 1461.2 227.829 1468.33 Q227.829 1475.44 229.635 1479.01 Q231.463 1482.55 235.075 1482.55 Q238.709 1482.55 240.514 1479.01 Q242.343 1475.44 242.343 1468.33 Q242.343 1461.2 240.514 1457.66 Q238.709 1454.1 235.075 1454.1 M235.075 1450.39 Q240.885 1450.39 243.94 1455 Q247.019 1459.58 247.019 1468.33 Q247.019 1477.06 243.94 1481.67 Q240.885 1486.25 235.075 1486.25 Q229.264 1486.25 226.186 1481.67 Q223.13 1477.06 223.13 1468.33 Q223.13 1459.58 226.186 1455 Q229.264 1450.39 235.075 1450.39 Z" fill="#000000" fill-rule="nonzero" fill-opacity="1" /><path clip-path="url(#clip630)" d="M255.236 1479.7 L260.121 1479.7 L260.121 1485.58 L255.236 1485.58 L255.236 1479.7 Z" fill="#000000" fill-rule="nonzero" fill-opacity="1" /><path clip-path="url(#clip630)" d="M280.306 1454.1 Q276.695 1454.1 274.866 1457.66 Q273.06 1461.2 273.06 1468.33 Q273.06 1475.44 274.866 1479.01 Q276.695 1482.55 280.306 1482.55 Q283.94 1482.55 285.746 1479.01 Q287.574 1475.44 287.574 1468.33 Q287.574 1461.2 285.746 1457.66 Q283.94 1454.1 280.306 1454.1 M280.306 1450.39 Q286.116 1450.39 289.171 1455 Q292.25 1459.58 292.25 1468.33 Q292.25 1477.06 289.171 1481.67 Q286.116 1486.25 280.306 1486.25 Q274.496 1486.25 271.417 1481.67 Q268.361 1477.06 268.361 1468.33 Q268.361 1459.58 271.417 1455 Q274.496 1450.39 280.306 1450.39 Z" fill="#000000" fill-rule="nonzero" fill-opacity="1" /><path clip-path="url(#clip630)" d="M654.886 1454.1 Q651.275 1454.1 649.446 1457.66 Q647.641 1461.2 647.641 1468.33 Q647.641 1475.44 649.446 1479.01 Q651.275 1482.55 654.886 1482.55 Q658.521 1482.55 660.326 1479.01 Q662.155 1475.44 662.155 1468.33 Q662.155 1461.2 660.326 1457.66 Q658.521 1454.1 654.886 1454.1 M654.886 1450.39 Q660.696 1450.39 663.752 1455 Q666.831 1459.58 666.831 1468.33 Q666.831 1477.06 663.752 1481.67 Q660.696 1486.25 654.886 1486.25 Q649.076 1486.25 645.997 1481.67 Q642.942 1477.06 642.942 1468.33 Q642.942 1459.58 645.997 1455 Q649.076 1450.39 654.886 1450.39 Z" fill="#000000" fill-rule="nonzero" fill-opacity="1" /><path clip-path="url(#clip630)" d="M675.048 1479.7 L679.932 1479.7 L679.932 1485.58 L675.048 1485.58 L675.048 1479.7 Z" fill="#000000" fill-rule="nonzero" fill-opacity="1" /><path clip-path="url(#clip630)" d="M694.145 1481.64 L710.465 1481.64 L710.465 1485.58 L688.52 1485.58 L688.52 1481.64 Q691.182 1478.89 695.766 1474.26 Q700.372 1469.61 701.553 1468.27 Q703.798 1465.74 704.678 1464.01 Q705.58 1462.25 705.58 1460.56 Q705.58 1457.8 703.636 1456.07 Q701.715 1454.33 698.613 1454.33 Q696.414 1454.33 693.96 1455.09 Q691.53 1455.86 688.752 1457.41 L688.752 1452.69 Q691.576 1451.55 694.03 1450.97 Q696.483 1450.39 698.52 1450.39 Q703.891 1450.39 707.085 1453.08 Q710.279 1455.77 710.279 1460.26 Q710.279 1462.39 709.469 1464.31 Q708.682 1466.2 706.576 1468.8 Q705.997 1469.47 702.895 1472.69 Q699.793 1475.88 694.145 1481.64 Z" fill="#000000" fill-rule="nonzero" fill-opacity="1" /><path clip-path="url(#clip630)" d="M1072.86 1454.1 Q1069.25 1454.1 1067.42 1457.66 Q1065.61 1461.2 1065.61 1468.33 Q1065.61 1475.44 1067.42 1479.01 Q1069.25 1482.55 1072.86 1482.55 Q1076.49 1482.55 1078.3 1479.01 Q1080.13 1475.44 1080.13 1468.33 Q1080.13 1461.2 1078.3 1457.66 Q1076.49 1454.1 1072.86 1454.1 M1072.86 1450.39 Q1078.67 1450.39 1081.72 1455 Q1084.8 1459.58 1084.8 1468.33 Q1084.8 1477.06 1081.72 1481.67 Q1078.67 1486.25 1072.86 1486.25 Q1067.05 1486.25 1063.97 1481.67 Q1060.91 1477.06 1060.91 1468.33 Q1060.91 1459.58 1063.97 1455 Q1067.05 1450.39 1072.86 1450.39 Z" fill="#000000" fill-rule="nonzero" fill-opacity="1" /><path clip-path="url(#clip630)" d="M1093.02 1479.7 L1097.9 1479.7 L1097.9 1485.58 L1093.02 1485.58 L1093.02 1479.7 Z" fill="#000000" fill-rule="nonzero" fill-opacity="1" /><path clip-path="url(#clip630)" d="M1120.94 1455.09 L1109.13 1473.54 L1120.94 1473.54 L1120.94 1455.09 M1119.71 1451.02 L1125.59 1451.02 L1125.59 1473.54 L1130.52 1473.54 L1130.52 1477.43 L1125.59 1477.43 L1125.59 1485.58 L1120.94 1485.58 L1120.94 1477.43 L1105.33 1477.43 L1105.33 1472.92 L1119.71 1451.02 Z" fill="#000000" fill-rule="nonzero" fill-opacity="1" /><path clip-path="url(#clip630)" d="M1492.03 1454.1 Q1488.42 1454.1 1486.59 1457.66 Q1484.79 1461.2 1484.79 1468.33 Q1484.79 1475.44 1486.59 1479.01 Q1488.42 1482.55 1492.03 1482.55 Q1495.67 1482.55 1497.47 1479.01 Q1499.3 1475.44 1499.3 1468.33 Q1499.3 1461.2 1497.47 1457.66 Q1495.67 1454.1 1492.03 1454.1 M1492.03 1450.39 Q1497.84 1450.39 1500.9 1455 Q1503.98 1459.58 1503.98 1468.33 Q1503.98 1477.06 1500.9 1481.67 Q1497.84 1486.25 1492.03 1486.25 Q1486.22 1486.25 1483.14 1481.67 Q1480.09 1477.06 1480.09 1468.33 Q1480.09 1459.58 1483.14 1455 Q1486.22 1450.39 1492.03 1450.39 Z" fill="#000000" fill-rule="nonzero" fill-opacity="1" /><path clip-path="url(#clip630)" d="M1512.19 1479.7 L1517.08 1479.7 L1517.08 1485.58 L1512.19 1485.58 L1512.19 1479.7 Z" fill="#000000" fill-rule="nonzero" fill-opacity="1" /><path clip-path="url(#clip630)" d="M1537.84 1466.44 Q1534.69 1466.44 1532.84 1468.59 Q1531.01 1470.74 1531.01 1474.49 Q1531.01 1478.22 1532.84 1480.39 Q1534.69 1482.55 1537.84 1482.55 Q1540.99 1482.55 1542.82 1480.39 Q1544.67 1478.22 1544.67 1474.49 Q1544.67 1470.74 1542.82 1468.59 Q1540.99 1466.44 1537.84 1466.44 M1547.13 1451.78 L1547.13 1456.04 Q1545.37 1455.21 1543.56 1454.77 Q1541.78 1454.33 1540.02 1454.33 Q1535.39 1454.33 1532.94 1457.45 Q1530.5 1460.58 1530.16 1466.9 Q1531.52 1464.89 1533.58 1463.82 Q1535.64 1462.73 1538.12 1462.73 Q1543.33 1462.73 1546.34 1465.9 Q1549.37 1469.05 1549.37 1474.49 Q1549.37 1479.82 1546.22 1483.03 Q1543.07 1486.25 1537.84 1486.25 Q1531.85 1486.25 1528.68 1481.67 Q1525.51 1477.06 1525.51 1468.33 Q1525.51 1460.14 1529.39 1455.28 Q1533.28 1450.39 1539.83 1450.39 Q1541.59 1450.39 1543.38 1450.74 Q1545.18 1451.09 1547.13 1451.78 Z" fill="#000000" fill-rule="nonzero" fill-opacity="1" /><path clip-path="url(#clip630)" d="M1911.17 1454.1 Q1907.56 1454.1 1905.73 1457.66 Q1903.93 1461.2 1903.93 1468.33 Q1903.93 1475.44 1905.73 1479.01 Q1907.56 1482.55 1911.17 1482.55 Q1914.81 1482.55 1916.61 1479.01 Q1918.44 1475.44 1918.44 1468.33 Q1918.44 1461.2 1916.61 1457.66 Q1914.81 1454.1 1911.17 1454.1 M1911.17 1450.39 Q1916.98 1450.39 1920.04 1455 Q1923.12 1459.58 1923.12 1468.33 Q1923.12 1477.06 1920.04 1481.67 Q1916.98 1486.25 1911.17 1486.25 Q1905.36 1486.25 1902.28 1481.67 Q1899.23 1477.06 1899.23 1468.33 Q1899.23 1459.58 1902.28 1455 Q1905.36 1450.39 1911.17 1450.39 Z" fill="#000000" fill-rule="nonzero" fill-opacity="1" /><path clip-path="url(#clip630)" d="M1931.34 1479.7 L1936.22 1479.7 L1936.22 1485.58 L1931.34 1485.58 L1931.34 1479.7 Z" fill="#000000" fill-rule="nonzero" fill-opacity="1" /><path clip-path="url(#clip630)" d="M1956.4 1469.17 Q1953.07 1469.17 1951.15 1470.95 Q1949.25 1472.73 1949.25 1475.86 Q1949.25 1478.98 1951.15 1480.77 Q1953.07 1482.55 1956.4 1482.55 Q1959.74 1482.55 1961.66 1480.77 Q1963.58 1478.96 1963.58 1475.86 Q1963.58 1472.73 1961.66 1470.95 Q1959.76 1469.17 1956.4 1469.17 M1951.73 1467.18 Q1948.72 1466.44 1947.03 1464.38 Q1945.36 1462.32 1945.36 1459.35 Q1945.36 1455.21 1948.3 1452.8 Q1951.27 1450.39 1956.4 1450.39 Q1961.57 1450.39 1964.51 1452.8 Q1967.45 1455.21 1967.45 1459.35 Q1967.45 1462.32 1965.76 1464.38 Q1964.09 1466.44 1961.1 1467.18 Q1964.48 1467.96 1966.36 1470.26 Q1968.26 1472.55 1968.26 1475.86 Q1968.26 1480.88 1965.18 1483.57 Q1962.12 1486.25 1956.4 1486.25 Q1950.69 1486.25 1947.61 1483.57 Q1944.55 1480.88 1944.55 1475.86 Q1944.55 1472.55 1946.45 1470.26 Q1948.35 1467.96 1951.73 1467.18 M1950.02 1459.79 Q1950.02 1462.48 1951.68 1463.98 Q1953.37 1465.49 1956.4 1465.49 Q1959.41 1465.49 1961.1 1463.98 Q1962.82 1462.48 1962.82 1459.79 Q1962.82 1457.11 1961.1 1455.6 Q1959.41 1454.1 1956.4 1454.1 Q1953.37 1454.1 1951.68 1455.6 Q1950.02 1457.11 1950.02 1459.79 Z" fill="#000000" fill-rule="nonzero" fill-opacity="1" /><path clip-path="url(#clip630)" d="M2319.91 1481.64 L2327.55 1481.64 L2327.55 1455.28 L2319.24 1456.95 L2319.24 1452.69 L2327.5 1451.02 L2332.18 1451.02 L2332.18 1481.64 L2339.82 1481.64 L2339.82 1485.58 L2319.91 1485.58 L2319.91 1481.64 Z" fill="#000000" fill-rule="nonzero" fill-opacity="1" /><path clip-path="url(#clip630)" d="M2349.26 1479.7 L2354.14 1479.7 L2354.14 1485.58 L2349.26 1485.58 L2349.26 1479.7 Z" fill="#000000" fill-rule="nonzero" fill-opacity="1" /><path clip-path="url(#clip630)" d="M2374.33 1454.1 Q2370.72 1454.1 2368.89 1457.66 Q2367.08 1461.2 2367.08 1468.33 Q2367.08 1475.44 2368.89 1479.01 Q2370.72 1482.55 2374.33 1482.55 Q2377.96 1482.55 2379.77 1479.01 Q2381.6 1475.44 2381.6 1468.33 Q2381.6 1461.2 2379.77 1457.66 Q2377.96 1454.1 2374.33 1454.1 M2374.33 1450.39 Q2380.14 1450.39 2383.2 1455 Q2386.27 1459.58 2386.27 1468.33 Q2386.27 1477.06 2383.2 1481.67 Q2380.14 1486.25 2374.33 1486.25 Q2368.52 1486.25 2365.44 1481.67 Q2362.39 1477.06 2362.39 1468.33 Q2362.39 1459.58 2365.44 1455 Q2368.52 1450.39 2374.33 1450.39 Z" fill="#000000" fill-rule="nonzero" fill-opacity="1" /><path clip-path="url(#clip630)" d="M1322.65 1518.39 Q1322.65 1519.23 1322.29 1520.84 Q1321.17 1525.38 1316.95 1528.5 Q1316.24 1529.08 1314.98 1529.83 Q1316.5 1530.82 1317.82 1532.66 Q1319.78 1535.69 1319.78 1539.78 Q1319.78 1541.68 1319.27 1544 Q1317.82 1549.37 1312.73 1553.24 Q1307.61 1557.01 1301.52 1557.01 Q1298.24 1557.01 1295.98 1555.27 Q1293.76 1553.5 1292.89 1550.53 L1288.41 1568.6 Q1288.32 1569.05 1287.74 1569.05 L1287.41 1569.05 Q1286.74 1569.05 1286.74 1568.28 L1296.91 1527.7 Q1297.59 1524.96 1298.69 1522.39 Q1299.78 1519.81 1301.29 1517.49 Q1302.84 1515.17 1304.61 1513.46 Q1306.38 1511.73 1308.57 1510.73 Q1310.76 1509.7 1313.08 1509.7 Q1317.95 1509.7 1320.72 1513.01 Q1322.65 1515.36 1322.65 1518.39 M1318.94 1517.23 Q1318.94 1515.24 1318.14 1513.85 Q1316.5 1511.21 1313.02 1511.21 Q1310.92 1511.21 1308.93 1512.18 Q1306.96 1513.11 1305.39 1514.72 Q1303.81 1516.33 1302.45 1518.52 Q1301.1 1520.71 1300.1 1523.09 Q1299.14 1525.45 1298.49 1528.02 L1294.53 1544 Q1294.15 1545.7 1294.15 1547.22 Q1294.15 1550.82 1296.14 1553.17 Q1298.14 1555.53 1301.58 1555.53 Q1306.16 1555.53 1310.09 1552.11 Q1313.5 1549.05 1314.92 1543.67 Q1315.72 1540.29 1315.72 1537.94 Q1315.72 1535.36 1314.79 1533.37 Q1314.11 1531.76 1312.79 1530.79 Q1310.34 1531.66 1307.86 1531.66 Q1306.67 1531.66 1306.03 1531.63 Q1305.42 1531.6 1304.52 1531.47 Q1303.65 1531.34 1303.23 1530.98 Q1302.84 1530.63 1302.84 1530.08 Q1302.84 1529.76 1302.91 1529.63 Q1303.03 1529.12 1303.45 1528.76 Q1303.87 1528.41 1304.35 1528.25 Q1304.84 1528.05 1305.64 1527.96 Q1306.48 1527.86 1307.03 1527.86 Q1307.58 1527.83 1308.51 1527.83 Q1310.7 1527.83 1312.92 1528.7 Q1313.76 1528.25 1314.66 1527.44 Q1317.53 1524.77 1318.49 1520.52 Q1318.94 1518.94 1318.94 1517.23 M1310.83 1529.7 Q1309.48 1529.34 1308.44 1529.34 Q1304.68 1529.34 1304.48 1529.95 Q1304.48 1530.02 1304.61 1530.08 Q1304.74 1530.12 1305.03 1530.15 Q1305.35 1530.15 1305.61 1530.18 Q1305.9 1530.21 1306.38 1530.21 Q1306.87 1530.21 1307.12 1530.21 Q1307.41 1530.21 1307.93 1530.21 Q1309.22 1530.21 1310.83 1529.7 Z" fill="#000000" fill-rule="nonzero" fill-opacity="1" /><polyline clip-path="url(#clip630)" style="stroke:#000000; stroke-linecap:round; stroke-linejoin:round; stroke-width:4; stroke-opacity:1; fill:none" points="257.69,1423.18 257.69,47.2441 "/>
<polyline clip-path="url(#clip630)" style="stroke:#000000; stroke-linecap:round; stroke-linejoin:round; stroke-width:4; stroke-opacity:1; fill:none" points="257.69,1390.91 276.588,1390.91 "/>
<polyline clip-path="url(#clip630)" style="stroke:#000000; stroke-linecap:round; stroke-linejoin:round; stroke-width:4; stroke-opacity:1; fill:none" points="257.69,1100.63 276.588,1100.63 "/>
<polyline clip-path="url(#clip630)" style="stroke:#000000; stroke-linecap:round; stroke-linejoin:round; stroke-width:4; stroke-opacity:1; fill:none" points="257.69,810.342 276.588,810.342 "/>
<polyline clip-path="url(#clip630)" style="stroke:#000000; stroke-linecap:round; stroke-linejoin:round; stroke-width:4; stroke-opacity:1; fill:none" points="257.69,520.058 276.588,520.058 "/>
<polyline clip-path="url(#clip630)" style="stroke:#000000; stroke-linecap:round; stroke-linejoin:round; stroke-width:4; stroke-opacity:1; fill:none" points="257.69,229.773 276.588,229.773 "/>
<path clip-path="url(#clip630)" d="M114.746 1391.36 L144.422 1391.36 L144.422 1395.3 L114.746 1395.3 L114.746 1391.36 Z" fill="#000000" fill-rule="nonzero" fill-opacity="1" /><path clip-path="url(#clip630)" d="M155.325 1404.26 L162.964 1404.26 L162.964 1377.89 L154.653 1379.56 L154.653 1375.3 L162.917 1373.63 L167.593 1373.63 L167.593 1404.26 L175.232 1404.26 L175.232 1408.19 L155.325 1408.19 L155.325 1404.26 Z" fill="#000000" fill-rule="nonzero" fill-opacity="1" /><path clip-path="url(#clip630)" d="M184.676 1402.31 L189.561 1402.31 L189.561 1408.19 L184.676 1408.19 L184.676 1402.31 Z" fill="#000000" fill-rule="nonzero" fill-opacity="1" /><path clip-path="url(#clip630)" d="M209.746 1376.71 Q206.135 1376.71 204.306 1380.27 Q202.5 1383.82 202.5 1390.95 Q202.5 1398.05 204.306 1401.62 Q206.135 1405.16 209.746 1405.16 Q213.38 1405.16 215.186 1401.62 Q217.014 1398.05 217.014 1390.95 Q217.014 1383.82 215.186 1380.27 Q213.38 1376.71 209.746 1376.71 M209.746 1373.01 Q215.556 1373.01 218.611 1377.61 Q221.69 1382.2 221.69 1390.95 Q221.69 1399.67 218.611 1404.28 Q215.556 1408.86 209.746 1408.86 Q203.936 1408.86 200.857 1404.28 Q197.801 1399.67 197.801 1390.95 Q197.801 1382.2 200.857 1377.61 Q203.936 1373.01 209.746 1373.01 Z" fill="#000000" fill-rule="nonzero" fill-opacity="1" /><path clip-path="url(#clip630)" d="M114.839 1101.08 L144.515 1101.08 L144.515 1105.01 L114.839 1105.01 L114.839 1101.08 Z" fill="#000000" fill-rule="nonzero" fill-opacity="1" /><path clip-path="url(#clip630)" d="M164.607 1086.43 Q160.996 1086.43 159.167 1089.99 Q157.362 1093.53 157.362 1100.66 Q157.362 1107.77 159.167 1111.33 Q160.996 1114.87 164.607 1114.87 Q168.241 1114.87 170.047 1111.33 Q171.876 1107.77 171.876 1100.66 Q171.876 1093.53 170.047 1089.99 Q168.241 1086.43 164.607 1086.43 M164.607 1082.72 Q170.417 1082.72 173.473 1087.33 Q176.551 1091.91 176.551 1100.66 Q176.551 1109.39 173.473 1113.99 Q170.417 1118.58 164.607 1118.58 Q158.797 1118.58 155.718 1113.99 Q152.663 1109.39 152.663 1100.66 Q152.663 1091.91 155.718 1087.33 Q158.797 1082.72 164.607 1082.72 Z" fill="#000000" fill-rule="nonzero" fill-opacity="1" /><path clip-path="url(#clip630)" d="M184.769 1112.03 L189.653 1112.03 L189.653 1117.91 L184.769 1117.91 L184.769 1112.03 Z" fill="#000000" fill-rule="nonzero" fill-opacity="1" /><path clip-path="url(#clip630)" d="M209.838 1101.49 Q206.505 1101.49 204.584 1103.28 Q202.686 1105.06 202.686 1108.18 Q202.686 1111.31 204.584 1113.09 Q206.505 1114.87 209.838 1114.87 Q213.172 1114.87 215.093 1113.09 Q217.014 1111.29 217.014 1108.18 Q217.014 1105.06 215.093 1103.28 Q213.195 1101.49 209.838 1101.49 M205.162 1099.5 Q202.153 1098.76 200.463 1096.7 Q198.797 1094.64 198.797 1091.68 Q198.797 1087.54 201.737 1085.13 Q204.699 1082.72 209.838 1082.72 Q215 1082.72 217.94 1085.13 Q220.88 1087.54 220.88 1091.68 Q220.88 1094.64 219.19 1096.7 Q217.523 1098.76 214.537 1099.5 Q217.917 1100.29 219.792 1102.58 Q221.69 1104.87 221.69 1108.18 Q221.69 1113.21 218.611 1115.89 Q215.556 1118.58 209.838 1118.58 Q204.121 1118.58 201.042 1115.89 Q197.987 1113.21 197.987 1108.18 Q197.987 1104.87 199.885 1102.58 Q201.783 1100.29 205.162 1099.5 M203.449 1092.12 Q203.449 1094.81 205.116 1096.31 Q206.806 1097.81 209.838 1097.81 Q212.848 1097.81 214.537 1096.31 Q216.25 1094.81 216.25 1092.12 Q216.25 1089.43 214.537 1087.93 Q212.848 1086.43 209.838 1086.43 Q206.806 1086.43 205.116 1087.93 Q203.449 1089.43 203.449 1092.12 Z" fill="#000000" fill-rule="nonzero" fill-opacity="1" /><path clip-path="url(#clip630)" d="M114.584 810.794 L144.26 810.794 L144.26 814.729 L114.584 814.729 L114.584 810.794 Z" fill="#000000" fill-rule="nonzero" fill-opacity="1" /><path clip-path="url(#clip630)" d="M164.352 796.141 Q160.741 796.141 158.913 799.706 Q157.107 803.247 157.107 810.377 Q157.107 817.483 158.913 821.048 Q160.741 824.59 164.352 824.59 Q167.987 824.59 169.792 821.048 Q171.621 817.483 171.621 810.377 Q171.621 803.247 169.792 799.706 Q167.987 796.141 164.352 796.141 M164.352 792.437 Q170.163 792.437 173.218 797.044 Q176.297 801.627 176.297 810.377 Q176.297 819.104 173.218 823.71 Q170.163 828.293 164.352 828.293 Q158.542 828.293 155.464 823.71 Q152.408 819.104 152.408 810.377 Q152.408 801.627 155.464 797.044 Q158.542 792.437 164.352 792.437 Z" fill="#000000" fill-rule="nonzero" fill-opacity="1" /><path clip-path="url(#clip630)" d="M184.514 821.743 L189.399 821.743 L189.399 827.622 L184.514 827.622 L184.514 821.743 Z" fill="#000000" fill-rule="nonzero" fill-opacity="1" /><path clip-path="url(#clip630)" d="M210.162 808.479 Q207.014 808.479 205.162 810.632 Q203.334 812.784 203.334 816.534 Q203.334 820.261 205.162 822.437 Q207.014 824.59 210.162 824.59 Q213.311 824.59 215.139 822.437 Q216.991 820.261 216.991 816.534 Q216.991 812.784 215.139 810.632 Q213.311 808.479 210.162 808.479 M219.445 793.826 L219.445 798.085 Q217.686 797.252 215.88 796.812 Q214.098 796.372 212.338 796.372 Q207.709 796.372 205.255 799.497 Q202.824 802.622 202.477 808.942 Q203.843 806.928 205.903 805.863 Q207.963 804.775 210.44 804.775 Q215.649 804.775 218.658 807.946 Q221.69 811.094 221.69 816.534 Q221.69 821.858 218.542 825.076 Q215.394 828.293 210.162 828.293 Q204.167 828.293 200.996 823.71 Q197.825 819.104 197.825 810.377 Q197.825 802.182 201.713 797.321 Q205.602 792.437 212.153 792.437 Q213.912 792.437 215.695 792.784 Q217.5 793.132 219.445 793.826 Z" fill="#000000" fill-rule="nonzero" fill-opacity="1" /><path clip-path="url(#clip630)" d="M114.26 520.509 L143.936 520.509 L143.936 524.444 L114.26 524.444 L114.26 520.509 Z" fill="#000000" fill-rule="nonzero" fill-opacity="1" /><path clip-path="url(#clip630)" d="M164.028 505.856 Q160.417 505.856 158.589 509.421 Q156.783 512.963 156.783 520.092 Q156.783 527.199 158.589 530.764 Q160.417 534.305 164.028 534.305 Q167.663 534.305 169.468 530.764 Q171.297 527.199 171.297 520.092 Q171.297 512.963 169.468 509.421 Q167.663 505.856 164.028 505.856 M164.028 502.153 Q169.839 502.153 172.894 506.759 Q175.973 511.342 175.973 520.092 Q175.973 528.819 172.894 533.426 Q169.839 538.009 164.028 538.009 Q158.218 538.009 155.14 533.426 Q152.084 528.819 152.084 520.092 Q152.084 511.342 155.14 506.759 Q158.218 502.153 164.028 502.153 Z" fill="#000000" fill-rule="nonzero" fill-opacity="1" /><path clip-path="url(#clip630)" d="M184.19 531.458 L189.075 531.458 L189.075 537.338 L184.19 537.338 L184.19 531.458 Z" fill="#000000" fill-rule="nonzero" fill-opacity="1" /><path clip-path="url(#clip630)" d="M212.107 506.852 L200.301 525.301 L212.107 525.301 L212.107 506.852 M210.88 502.778 L216.76 502.778 L216.76 525.301 L221.69 525.301 L221.69 529.189 L216.76 529.189 L216.76 537.338 L212.107 537.338 L212.107 529.189 L196.505 529.189 L196.505 524.676 L210.88 502.778 Z" fill="#000000" fill-rule="nonzero" fill-opacity="1" /><path clip-path="url(#clip630)" d="M116.343 230.224 L146.019 230.224 L146.019 234.159 L116.343 234.159 L116.343 230.224 Z" fill="#000000" fill-rule="nonzero" fill-opacity="1" /><path clip-path="url(#clip630)" d="M166.112 215.572 Q162.501 215.572 160.672 219.136 Q158.866 222.678 158.866 229.808 Q158.866 236.914 160.672 240.479 Q162.501 244.021 166.112 244.021 Q169.746 244.021 171.552 240.479 Q173.38 236.914 173.38 229.808 Q173.38 222.678 171.552 219.136 Q169.746 215.572 166.112 215.572 M166.112 211.868 Q171.922 211.868 174.977 216.474 Q178.056 221.058 178.056 229.808 Q178.056 238.534 174.977 243.141 Q171.922 247.724 166.112 247.724 Q160.302 247.724 157.223 243.141 Q154.167 238.534 154.167 229.808 Q154.167 221.058 157.223 216.474 Q160.302 211.868 166.112 211.868 Z" fill="#000000" fill-rule="nonzero" fill-opacity="1" /><path clip-path="url(#clip630)" d="M186.274 241.173 L191.158 241.173 L191.158 247.053 L186.274 247.053 L186.274 241.173 Z" fill="#000000" fill-rule="nonzero" fill-opacity="1" /><path clip-path="url(#clip630)" d="M205.371 243.118 L221.69 243.118 L221.69 247.053 L199.746 247.053 L199.746 243.118 Q202.408 240.363 206.991 235.734 Q211.598 231.081 212.778 229.738 Q215.024 227.215 215.903 225.479 Q216.806 223.72 216.806 222.03 Q216.806 219.275 214.861 217.539 Q212.94 215.803 209.838 215.803 Q207.639 215.803 205.186 216.567 Q202.755 217.331 199.977 218.882 L199.977 214.16 Q202.801 213.025 205.255 212.447 Q207.709 211.868 209.746 211.868 Q215.116 211.868 218.311 214.553 Q221.505 217.238 221.505 221.729 Q221.505 223.859 220.695 225.78 Q219.908 227.678 217.801 230.271 Q217.223 230.942 214.121 234.159 Q211.019 237.354 205.371 243.118 Z" fill="#000000" fill-rule="nonzero" fill-opacity="1" /><path clip-path="url(#clip630)" d="M81.2531 859.143 Q81.8006 859.143 82.187 859.529 Q82.5735 859.915 82.5735 860.463 Q82.5735 861.397 81.7039 861.719 L50.0456 873.989 Q49.9168 874.054 49.5947 874.054 Q49.2726 874.054 49.1438 873.989 L17.4855 861.719 Q16.6159 861.397 16.6159 860.463 Q16.6159 859.915 17.0024 859.529 Q17.3888 859.143 17.9363 859.143 Q18.2584 859.143 18.3872 859.207 L49.5947 871.349 L80.8022 859.207 Q80.931 859.143 81.2531 859.143 Z" fill="#000000" fill-rule="nonzero" fill-opacity="1" /><path clip-path="url(#clip630)" d="M23.0249 800.837 L34.4257 802.157 Q35.4563 802.254 35.7784 802.415 Q36.0682 802.576 36.0682 803.091 Q36.0682 803.478 35.8428 803.703 Q35.5851 803.896 35.2953 803.896 Q35.1343 803.896 34.7156 803.864 Q34.2969 803.832 34.1037 803.832 Q32.1069 803.542 30.5932 803.542 Q27.7913 803.542 26.2777 804.38 Q24.7318 805.217 24.0232 807.375 Q23.2825 809.532 23.2825 813.59 L23.2825 822.866 Q23.2825 824.991 23.669 825.507 Q24.0554 825.99 25.859 826.441 L41.7365 830.402 L41.7365 824.186 Q41.7365 821.867 41.4466 820.482 Q41.1568 819.065 40.3516 818.131 Q39.5143 817.165 38.3871 816.65 Q37.2598 816.102 35.2309 815.555 Q34.5546 815.394 34.2969 815.233 Q34.0393 815.04 34.0393 814.621 Q34.0393 814.299 34.2647 814.074 Q34.4579 813.848 34.7478 813.848 L50.1744 817.616 Q50.9473 817.809 51.2372 818.003 Q51.4948 818.196 51.4948 818.582 Q51.4948 819.001 51.2694 819.226 Q51.044 819.452 50.7863 819.452 Q50.5287 819.452 50.0456 819.259 Q47.9522 818.776 46.825 818.776 Q46.1809 818.776 45.8588 818.84 Q45.5368 818.872 45.0859 819.162 Q44.6028 819.42 44.3773 819.999 Q44.1519 820.579 43.9909 821.674 Q43.7976 822.769 43.7976 824.412 L43.7976 830.917 L61.8007 835.426 Q62.9923 835.748 63.3144 835.748 Q63.6687 835.748 63.7975 835.587 Q63.8941 835.394 63.9585 834.879 Q64.0551 834.299 64.0551 833.429 L64.0551 823.8 Q64.0551 821.674 63.8619 819.967 Q63.6687 818.26 63.1856 816.843 Q62.7025 815.394 62.155 814.299 Q61.6075 813.204 60.6091 812.173 Q59.5785 811.143 58.6767 810.434 Q57.7428 809.694 56.1647 808.824 Q54.5866 807.954 53.2984 807.342 Q51.9779 806.731 49.8523 805.797 Q49.0794 805.539 49.0794 804.927 Q49.0794 804.573 49.2726 804.38 Q49.4337 804.186 49.5947 804.154 L49.7879 804.154 Q50.3998 804.347 50.7219 804.476 L64.9569 810.531 Q65.762 810.885 65.9231 811.175 Q66.0841 811.465 66.0841 812.592 L66.0841 846.827 Q66.0841 847.6 66.0519 847.922 Q66.0197 848.212 65.8587 848.437 Q65.6654 848.663 65.2789 848.663 Q64.667 848.663 64.4094 848.405 Q64.1195 848.147 64.0873 847.857 Q64.0551 847.568 64.0551 846.827 Q64.0551 845.217 63.9585 844.25 Q63.8619 843.284 63.7331 842.672 Q63.572 842.028 63.1212 841.706 Q62.6703 841.352 62.2838 841.191 Q61.8651 841.03 60.9312 840.804 L26.0522 832.109 Q24.8606 831.787 24.4741 831.787 Q24.0554 831.787 23.7978 832.077 Q23.5402 832.334 23.4435 833.043 Q23.3147 833.751 23.3147 834.331 Q23.2825 834.879 23.2825 836.07 Q23.2825 836.843 23.2503 837.165 Q23.2181 837.455 23.0571 837.68 Q22.896 837.906 22.5418 837.906 Q21.64 837.906 21.4468 837.519 Q21.2213 837.101 21.2213 835.941 L21.2213 802.64 Q21.2213 801.32 21.5112 801.03 Q21.7688 800.708 23.0249 800.837 Z" fill="#000000" fill-rule="nonzero" fill-opacity="1" /><path clip-path="url(#clip630)" d="M49.1438 785.649 Q49.2726 785.585 49.5947 785.585 Q49.9168 785.585 50.0456 785.649 L81.7039 797.92 Q82.5735 798.242 82.5735 799.144 Q82.5735 799.691 82.187 800.078 Q81.8006 800.464 81.2531 800.464 Q80.931 800.464 80.8022 800.4 L49.5947 788.29 L18.3872 800.4 Q18.2584 800.464 17.9363 800.464 Q17.3888 800.464 17.0024 800.078 Q16.6159 799.691 16.6159 799.144 Q16.6159 798.242 17.4855 797.92 L49.1438 785.649 Z" fill="#000000" fill-rule="nonzero" fill-opacity="1" /><path clip-path="url(#clip630)" d="M81.6395 775.073 Q81.3175 775.073 80.6089 774.815 L18.3872 751.53 Q18.3228 751.53 17.9685 751.369 Q17.6143 751.208 17.3888 751.112 Q17.1312 751.015 16.938 750.822 Q16.7447 750.596 16.7447 750.339 Q16.7447 749.695 17.5499 749.695 Q17.6143 749.695 18.3872 749.888 L80.6734 773.237 Q81.8006 773.624 82.1226 773.881 Q82.4447 774.107 82.4447 774.493 Q82.4447 775.073 81.6395 775.073 Z" fill="#000000" fill-rule="nonzero" fill-opacity="1" /><path clip-path="url(#clip630)" d="M23.0249 694.583 L34.4257 695.903 Q35.4563 696 35.7784 696.161 Q36.0682 696.322 36.0682 696.837 Q36.0682 697.224 35.8428 697.449 Q35.5851 697.643 35.2953 697.643 Q35.1343 697.643 34.7156 697.61 Q34.2969 697.578 34.1037 697.578 Q32.1069 697.288 30.5932 697.288 Q27.7913 697.288 26.2777 698.126 Q24.7318 698.963 24.0232 701.121 Q23.2825 703.279 23.2825 707.337 L23.2825 716.612 Q23.2825 718.737 23.669 719.253 Q24.0554 719.736 25.859 720.187 L41.7365 724.148 L41.7365 717.932 Q41.7365 715.613 41.4466 714.229 Q41.1568 712.812 40.3516 711.878 Q39.5143 710.911 38.3871 710.396 Q37.2598 709.849 35.2309 709.301 Q34.5546 709.14 34.2969 708.979 Q34.0393 708.786 34.0393 708.367 Q34.0393 708.045 34.2647 707.82 Q34.4579 707.594 34.7478 707.594 L50.1744 711.362 Q50.9473 711.556 51.2372 711.749 Q51.4948 711.942 51.4948 712.328 Q51.4948 712.747 51.2694 712.973 Q51.044 713.198 50.7863 713.198 Q50.5287 713.198 50.0456 713.005 Q47.9522 712.522 46.825 712.522 Q46.1809 712.522 45.8588 712.586 Q45.5368 712.618 45.0859 712.908 Q44.6028 713.166 44.3773 713.746 Q44.1519 714.325 43.9909 715.42 Q43.7976 716.515 43.7976 718.158 L43.7976 724.663 L61.8007 729.172 Q62.9923 729.494 63.3144 729.494 Q63.6687 729.494 63.7975 729.333 Q63.8941 729.14 63.9585 728.625 Q64.0551 728.045 64.0551 727.175 L64.0551 717.546 Q64.0551 715.42 63.8619 713.713 Q63.6687 712.006 63.1856 710.589 Q62.7025 709.14 62.155 708.045 Q61.6075 706.95 60.6091 705.919 Q59.5785 704.889 58.6767 704.18 Q57.7428 703.44 56.1647 702.57 Q54.5866 701.701 53.2984 701.089 Q51.9779 700.477 49.8523 699.543 Q49.0794 699.285 49.0794 698.673 Q49.0794 698.319 49.2726 698.126 Q49.4337 697.932 49.5947 697.9 L49.7879 697.9 Q50.3998 698.093 50.7219 698.222 L64.9569 704.277 Q65.762 704.631 65.9231 704.921 Q66.0841 705.211 66.0841 706.338 L66.0841 740.573 Q66.0841 741.346 66.0519 741.668 Q66.0197 741.958 65.8587 742.183 Q65.6654 742.409 65.2789 742.409 Q64.667 742.409 64.4094 742.151 Q64.1195 741.893 64.0873 741.604 Q64.0551 741.314 64.0551 740.573 Q64.0551 738.963 63.9585 737.997 Q63.8619 737.03 63.7331 736.418 Q63.572 735.774 63.1212 735.452 Q62.6703 735.098 62.2838 734.937 Q61.8651 734.776 60.9312 734.55 L26.0522 725.855 Q24.8606 725.533 24.4741 725.533 Q24.0554 725.533 23.7978 725.823 Q23.5402 726.08 23.4435 726.789 Q23.3147 727.497 23.3147 728.077 Q23.2825 728.625 23.2825 729.816 Q23.2825 730.589 23.2503 730.911 Q23.2181 731.201 23.0571 731.427 Q22.896 731.652 22.5418 731.652 Q21.64 731.652 21.4468 731.265 Q21.2213 730.847 21.2213 729.687 L21.2213 696.387 Q21.2213 695.066 21.5112 694.776 Q21.7688 694.454 23.0249 694.583 Z" fill="#000000" fill-rule="nonzero" fill-opacity="1" /><path clip-path="url(#clip630)" d="M78.3822 687.884 L76.9619 687.884 Q76.9619 685.427 76.6689 684.863 Q76.3533 684.3 74.8653 684.3 L62.4886 684.3 Q60.7753 684.3 60.3469 684.909 Q59.9186 685.495 59.9186 687.884 L58.4758 687.884 L57.9798 681.392 L62.8268 681.392 Q57.9798 679.227 57.9798 674.561 Q57.9798 669.15 62.4886 668.406 Q60.7302 667.617 59.355 665.971 Q57.9798 664.303 57.9798 661.711 Q57.9798 658.239 59.6932 656.864 Q60.8429 655.849 62.1279 655.646 Q63.4129 655.443 66.7495 655.443 L75.5642 655.443 Q76.5336 655.398 76.759 654.654 Q76.9619 653.91 76.9619 651.836 L78.3822 651.836 Q78.247 656.548 78.247 656.999 Q78.247 657.36 78.3822 662.229 L76.9619 662.229 Q76.9619 659.772 76.6689 659.208 Q76.3533 658.622 74.8653 658.622 L64.1118 658.622 Q61.7672 658.622 60.392 659.344 Q58.9943 660.065 58.9943 662.049 Q58.9943 664.438 61.0007 666.355 Q63.0071 668.271 66.3888 668.271 L74.8653 668.271 Q76.3533 668.271 76.6689 667.707 Q76.9619 667.121 76.9619 664.664 L78.3822 664.664 Q78.247 669.376 78.247 669.849 Q78.247 670.21 78.3822 675.057 L76.9619 675.057 Q76.9619 672.599 76.6689 672.036 Q76.3533 671.45 74.8653 671.45 L64.1118 671.45 Q61.7672 671.45 60.392 672.171 Q58.9943 672.893 58.9943 674.876 Q58.9943 677.266 61.0007 679.182 Q63.0071 681.099 66.3888 681.099 L74.8653 681.099 Q76.3533 681.099 76.6689 680.535 Q76.9619 679.949 76.9619 677.514 L78.3822 677.514 Q78.247 682.226 78.247 682.677 Q78.247 683.037 78.3822 687.884 Z" fill="#000000" fill-rule="nonzero" fill-opacity="1" /><path clip-path="url(#clip630)" d="M73.9861 649.259 Q70.0634 649.259 67.9894 644.638 Q66.6593 641.865 66.3211 636.138 L64.6303 636.138 Q61.7672 636.138 60.2568 637.649 Q58.7238 639.137 58.7238 641.03 Q58.7238 644.412 60.8429 646.035 Q60.888 644.66 61.5869 644.164 Q62.2632 643.668 62.9621 643.668 Q63.8864 643.668 64.4951 644.254 Q65.0812 644.818 65.0812 645.787 Q65.0812 646.712 64.5176 647.32 Q63.9315 647.929 62.917 647.929 Q60.6626 647.929 59.1746 645.9 Q57.6867 643.849 57.6867 640.94 Q57.6867 637.153 60.2342 634.628 Q61.0233 633.839 62.0377 633.456 Q63.0522 633.05 63.7286 633.005 Q64.3823 632.96 65.6899 632.96 L74.9104 632.96 Q75.181 632.96 75.6318 632.87 Q76.0827 632.779 76.6689 632.374 Q77.2325 631.945 77.2325 631.246 Q77.2325 629.578 74.2792 629.601 L71.6866 629.601 L71.6866 628.428 L74.2792 628.428 Q76.7365 628.428 77.7059 629.736 Q78.6527 631.021 78.6527 632.216 Q78.6527 633.749 77.5255 634.718 Q76.3983 635.688 74.8653 635.823 Q76.6238 636.522 77.7735 638.122 Q78.9007 639.7 78.9007 641.865 Q78.9007 643.533 78.4724 645.111 Q78.0666 646.667 76.9169 647.974 Q75.7446 649.259 73.9861 649.259 M73.941 645.697 Q75.6544 645.697 76.759 644.48 Q77.8637 643.262 77.8637 641.549 Q77.8637 639.61 76.3758 637.874 Q74.8653 636.138 71.9121 636.138 L67.2905 636.138 Q67.4709 641.256 69.5224 643.488 Q71.5514 645.697 73.941 645.697 Z" fill="#000000" fill-rule="nonzero" fill-opacity="1" /><path clip-path="url(#clip630)" d="M78.3822 627.503 L76.9619 627.503 Q76.9619 623.896 74.189 621.596 Q74.189 621.596 68.6883 617.268 L62.7366 621.844 Q60.6626 623.468 60.3018 624.189 Q59.9186 624.888 59.9186 627.278 L58.4758 627.278 Q58.611 625.384 58.611 622.904 Q58.611 621.529 58.4758 617.899 L59.9186 617.899 Q60.0088 619.522 61.0683 619.522 Q61.4291 619.522 61.9025 619.117 L66.5691 615.51 L62.9621 612.646 Q62.1279 611.948 61.3389 611.948 Q60.0539 611.948 59.9186 613.3 L58.4758 613.3 Q58.611 611.497 58.611 608.859 Q58.611 606.875 58.4758 605.072 L59.9186 605.072 Q60.0088 608.589 62.3083 610.572 Q63.2777 611.452 67.5385 614.811 L75.5191 608.634 Q76.4885 607.89 76.7365 607.056 Q76.9619 606.221 76.9619 604.238 L78.3822 604.238 Q78.247 606.312 78.247 608.679 Q78.247 609.513 78.3822 613.661 L76.9619 613.661 Q76.9169 612.827 76.5561 612.421 Q76.1729 611.993 75.7896 611.993 Q75.6093 611.993 74.2792 612.962 L69.6577 616.479 Q73.8058 619.996 74.7752 620.447 Q75.181 620.627 75.5191 620.627 Q76.759 620.627 76.9619 619.297 L78.3822 619.297 Q78.247 622.611 78.247 623.671 Q78.247 625.7 78.3822 627.503 Z" fill="#000000" fill-rule="nonzero" fill-opacity="1" /><polyline clip-path="url(#clip632)" style="stroke:#009af9; stroke-linecap:round; stroke-linejoin:round; stroke-width:4; stroke-opacity:1; fill:none" points="467.197,86.1857 488.147,101.411 509.098,116.791 530.049,132.34 550.999,148.07 571.95,163.997 592.901,180.134 613.851,196.497 634.802,213.103 655.753,229.972 676.703,247.122 697.654,264.576 718.605,282.354 739.555,300.481 760.506,318.979 781.457,337.876 802.407,357.2 823.358,376.981 844.309,397.251 865.259,418.045 886.21,439.397 907.161,461.343 928.111,483.922 949.062,507.176 970.012,531.15 990.963,555.898 1011.91,581.48 1032.86,607.963 1053.82,635.419 1074.77,663.922 1095.72,693.547 1116.67,724.366 1137.62,756.448 1158.57,789.847 1179.52,824.574 1200.47,860.555 1221.42,897.564 1242.37,935.171 1263.32,972.738 1284.27,1009.48 1305.22,1044.62 1326.17,1077.49 1347.12,1107.67 1368.07,1135.01 1389.03,1159.52 1409.98,1181.39 1430.93,1200.87 1451.88,1218.22 1472.83,1233.7 1493.78,1247.54 1514.73,1259.95 1535.68,1271.1 1556.63,1281.15 1577.58,1290.22 1598.53,1298.42 1619.48,1305.86 1640.43,1312.62 1661.38,1318.77 1682.33,1324.37 1703.29,1329.48 1724.24,1334.16 1745.19,1338.43 1766.14,1342.35 1787.09,1345.95 1808.04,1349.25 1828.99,1352.29 1849.94,1355.08 1870.89,1357.66 1891.84,1360.03 1912.79,1362.22 1933.74,1364.24 1954.69,1366.11 1975.64,1367.84 1996.59,1369.44 2017.55,1370.92 2038.5,1372.29 2059.45,1373.56 2080.4,1374.74 2101.35,1375.83 2122.3,1376.85 2143.25,1377.79 2164.2,1378.66 2185.15,1379.48 2206.1,1380.23 2227.05,1380.94 2248,1381.59 2268.95,1382.2 2289.9,1382.76 2310.85,1383.29 2331.81,1383.78 2352.76,1384.24 "/>
</svg>
