<?xml version="1.0" encoding="utf-8"?>
<svg xmlns="http://www.w3.org/2000/svg" xmlns:xlink="http://www.w3.org/1999/xlink" width="600" height="400" viewBox="0 0 2400 1600">
<defs>
  <clipPath id="clip440">
    <rect x="0" y="0" width="2400" height="1600"/>
  </clipPath>
</defs>
<path clip-path="url(#clip440)" d="M0 1600 L2400 1600 L2400 0 L0 0  Z" fill="#ffffff" fill-rule="evenodd" fill-opacity="1"/>
<defs>
  <clipPath id="clip441">
    <rect x="480" y="0" width="1681" height="1600"/>
  </clipPath>
</defs>
<path clip-path="url(#clip440)" d="M249.542 1423.18 L2352.76 1423.18 L2352.76 47.2441 L249.542 47.2441  Z" fill="#ffffff" fill-rule="evenodd" fill-opacity="1"/>
<defs>
  <clipPath id="clip442">
    <rect x="249" y="47" width="2104" height="1377"/>
  </clipPath>
</defs>
<polyline clip-path="url(#clip442)" style="stroke:#000000; stroke-linecap:round; stroke-linejoin:round; stroke-width:2; stroke-opacity:0.1; fill:none" points="249.542,1423.18 249.542,47.2441 "/>
<polyline clip-path="url(#clip442)" style="stroke:#000000; stroke-linecap:round; stroke-linejoin:round; stroke-width:2; stroke-opacity:0.1; fill:none" points="670.185,1423.18 670.185,47.2441 "/>
<polyline clip-path="url(#clip442)" style="stroke:#000000; stroke-linecap:round; stroke-linejoin:round; stroke-width:2; stroke-opacity:0.1; fill:none" points="1090.83,1423.18 1090.83,47.2441 "/>
<polyline clip-path="url(#clip442)" style="stroke:#000000; stroke-linecap:round; stroke-linejoin:round; stroke-width:2; stroke-opacity:0.1; fill:none" points="1511.47,1423.18 1511.47,47.2441 "/>
<polyline clip-path="url(#clip442)" style="stroke:#000000; stroke-linecap:round; stroke-linejoin:round; stroke-width:2; stroke-opacity:0.1; fill:none" points="1932.11,1423.18 1932.11,47.2441 "/>
<polyline clip-path="url(#clip442)" style="stroke:#000000; stroke-linecap:round; stroke-linejoin:round; stroke-width:2; stroke-opacity:0.1; fill:none" points="2352.76,1423.18 2352.76,47.2441 "/>
<polyline clip-path="url(#clip442)" style="stroke:#000000; stroke-linecap:round; stroke-linejoin:round; stroke-width:2; stroke-opacity:0.1; fill:none" points="249.542,1423.18 2352.76,1423.18 "/>
<polyline clip-path="url(#clip442)" style="stroke:#000000; stroke-linecap:round; stroke-linejoin:round; stroke-width:2; stroke-opacity:0.1; fill:none" points="249.542,1120.76 2352.76,1120.76 "/>
<polyline clip-path="url(#clip442)" style="stroke:#000000; stroke-linecap:round; stroke-linejoin:round; stroke-width:2; stroke-opacity:0.1; fill:none" points="249.542,818.349 2352.76,818.349 "/>
<polyline clip-path="url(#clip442)" style="stroke:#000000; stroke-linecap:round; stroke-linejoin:round; stroke-width:2; stroke-opacity:0.1; fill:none" points="249.542,515.933 2352.76,515.933 "/>
<polyline clip-path="url(#clip442)" style="stroke:#000000; stroke-linecap:round; stroke-linejoin:round; stroke-width:2; stroke-opacity:0.1; fill:none" points="249.542,213.517 2352.76,213.517 "/>
<polyline clip-path="url(#clip440)" style="stroke:#000000; stroke-linecap:round; stroke-linejoin:round; stroke-width:4; stroke-opacity:1; fill:none" points="249.542,1423.18 2352.76,1423.18 "/>
<polyline clip-path="url(#clip440)" style="stroke:#000000; stroke-linecap:round; stroke-linejoin:round; stroke-width:4; stroke-opacity:1; fill:none" points="249.542,1423.18 249.542,1404.28 "/>
<polyline clip-path="url(#clip440)" style="stroke:#000000; stroke-linecap:round; stroke-linejoin:round; stroke-width:4; stroke-opacity:1; fill:none" points="670.185,1423.18 670.185,1404.28 "/>
<polyline clip-path="url(#clip440)" style="stroke:#000000; stroke-linecap:round; stroke-linejoin:round; stroke-width:4; stroke-opacity:1; fill:none" points="1090.83,1423.18 1090.83,1404.28 "/>
<polyline clip-path="url(#clip440)" style="stroke:#000000; stroke-linecap:round; stroke-linejoin:round; stroke-width:4; stroke-opacity:1; fill:none" points="1511.47,1423.18 1511.47,1404.28 "/>
<polyline clip-path="url(#clip440)" style="stroke:#000000; stroke-linecap:round; stroke-linejoin:round; stroke-width:4; stroke-opacity:1; fill:none" points="1932.11,1423.18 1932.11,1404.28 "/>
<polyline clip-path="url(#clip440)" style="stroke:#000000; stroke-linecap:round; stroke-linejoin:round; stroke-width:4; stroke-opacity:1; fill:none" points="2352.76,1423.18 2352.76,1404.28 "/>
<path clip-path="url(#clip440)" d="M226.926 1454.1 Q223.315 1454.1 221.487 1457.66 Q219.681 1461.2 219.681 1468.33 Q219.681 1475.44 221.487 1479.01 Q223.315 1482.55 226.926 1482.55 Q230.561 1482.55 232.366 1479.01 Q234.195 1475.44 234.195 1468.33 Q234.195 1461.2 232.366 1457.66 Q230.561 1454.1 226.926 1454.1 M226.926 1450.39 Q232.737 1450.39 235.792 1455 Q238.871 1459.58 238.871 1468.33 Q238.871 1477.06 235.792 1481.67 Q232.737 1486.25 226.926 1486.25 Q221.116 1486.25 218.038 1481.67 Q214.982 1477.06 214.982 1468.33 Q214.982 1459.58 218.038 1455 Q221.116 1450.39 226.926 1450.39 Z" fill="#000000" fill-rule="nonzero" fill-opacity="1" /><path clip-path="url(#clip440)" d="M247.088 1479.7 L251.973 1479.7 L251.973 1485.58 L247.088 1485.58 L247.088 1479.7 Z" fill="#000000" fill-rule="nonzero" fill-opacity="1" /><path clip-path="url(#clip440)" d="M272.158 1454.1 Q268.547 1454.1 266.718 1457.66 Q264.912 1461.2 264.912 1468.33 Q264.912 1475.44 266.718 1479.01 Q268.547 1482.55 272.158 1482.55 Q275.792 1482.55 277.597 1479.01 Q279.426 1475.44 279.426 1468.33 Q279.426 1461.2 277.597 1457.66 Q275.792 1454.1 272.158 1454.1 M272.158 1450.39 Q277.968 1450.39 281.023 1455 Q284.102 1459.58 284.102 1468.33 Q284.102 1477.06 281.023 1481.67 Q277.968 1486.25 272.158 1486.25 Q266.347 1486.25 263.269 1481.67 Q260.213 1477.06 260.213 1468.33 Q260.213 1459.58 263.269 1455 Q266.347 1450.39 272.158 1450.39 Z" fill="#000000" fill-rule="nonzero" fill-opacity="1" /><path clip-path="url(#clip440)" d="M648.368 1454.1 Q644.757 1454.1 642.928 1457.66 Q641.122 1461.2 641.122 1468.33 Q641.122 1475.44 642.928 1479.01 Q644.757 1482.55 648.368 1482.55 Q652.002 1482.55 653.808 1479.01 Q655.636 1475.44 655.636 1468.33 Q655.636 1461.2 653.808 1457.66 Q652.002 1454.1 648.368 1454.1 M648.368 1450.39 Q654.178 1450.39 657.233 1455 Q660.312 1459.58 660.312 1468.33 Q660.312 1477.06 657.233 1481.67 Q654.178 1486.25 648.368 1486.25 Q642.558 1486.25 639.479 1481.67 Q636.423 1477.06 636.423 1468.33 Q636.423 1459.58 639.479 1455 Q642.558 1450.39 648.368 1450.39 Z" fill="#000000" fill-rule="nonzero" fill-opacity="1" /><path clip-path="url(#clip440)" d="M668.53 1479.7 L673.414 1479.7 L673.414 1485.58 L668.53 1485.58 L668.53 1479.7 Z" fill="#000000" fill-rule="nonzero" fill-opacity="1" /><path clip-path="url(#clip440)" d="M687.627 1481.64 L703.946 1481.64 L703.946 1485.58 L682.002 1485.58 L682.002 1481.64 Q684.664 1478.89 689.247 1474.26 Q693.854 1469.61 695.034 1468.27 Q697.28 1465.74 698.159 1464.01 Q699.062 1462.25 699.062 1460.56 Q699.062 1457.8 697.118 1456.07 Q695.196 1454.33 692.094 1454.33 Q689.895 1454.33 687.442 1455.09 Q685.011 1455.86 682.233 1457.41 L682.233 1452.69 Q685.057 1451.55 687.511 1450.97 Q689.965 1450.39 692.002 1450.39 Q697.372 1450.39 700.567 1453.08 Q703.761 1455.77 703.761 1460.26 Q703.761 1462.39 702.951 1464.31 Q702.164 1466.2 700.057 1468.8 Q699.479 1469.47 696.377 1472.69 Q693.275 1475.88 687.627 1481.64 Z" fill="#000000" fill-rule="nonzero" fill-opacity="1" /><path clip-path="url(#clip440)" d="M1067.97 1454.1 Q1064.36 1454.1 1062.53 1457.66 Q1060.72 1461.2 1060.72 1468.33 Q1060.72 1475.44 1062.53 1479.01 Q1064.36 1482.55 1067.97 1482.55 Q1071.6 1482.55 1073.41 1479.01 Q1075.24 1475.44 1075.24 1468.33 Q1075.24 1461.2 1073.41 1457.66 Q1071.6 1454.1 1067.97 1454.1 M1067.97 1450.39 Q1073.78 1450.39 1076.83 1455 Q1079.91 1459.58 1079.91 1468.33 Q1079.91 1477.06 1076.83 1481.67 Q1073.78 1486.25 1067.97 1486.25 Q1062.16 1486.25 1059.08 1481.67 Q1056.02 1477.06 1056.02 1468.33 Q1056.02 1459.58 1059.08 1455 Q1062.16 1450.39 1067.97 1450.39 Z" fill="#000000" fill-rule="nonzero" fill-opacity="1" /><path clip-path="url(#clip440)" d="M1088.13 1479.7 L1093.02 1479.7 L1093.02 1485.58 L1088.13 1485.58 L1088.13 1479.7 Z" fill="#000000" fill-rule="nonzero" fill-opacity="1" /><path clip-path="url(#clip440)" d="M1116.05 1455.09 L1104.24 1473.54 L1116.05 1473.54 L1116.05 1455.09 M1114.82 1451.02 L1120.7 1451.02 L1120.7 1473.54 L1125.63 1473.54 L1125.63 1477.43 L1120.7 1477.43 L1120.7 1485.58 L1116.05 1485.58 L1116.05 1477.43 L1100.45 1477.43 L1100.45 1472.92 L1114.82 1451.02 Z" fill="#000000" fill-rule="nonzero" fill-opacity="1" /><path clip-path="url(#clip440)" d="M1488.77 1454.1 Q1485.16 1454.1 1483.33 1457.66 Q1481.53 1461.2 1481.53 1468.33 Q1481.53 1475.44 1483.33 1479.01 Q1485.16 1482.55 1488.77 1482.55 Q1492.41 1482.55 1494.21 1479.01 Q1496.04 1475.44 1496.04 1468.33 Q1496.04 1461.2 1494.21 1457.66 Q1492.41 1454.1 1488.77 1454.1 M1488.77 1450.39 Q1494.58 1450.39 1497.64 1455 Q1500.72 1459.58 1500.72 1468.33 Q1500.72 1477.06 1497.64 1481.67 Q1494.58 1486.25 1488.77 1486.25 Q1482.96 1486.25 1479.88 1481.67 Q1476.83 1477.06 1476.83 1468.33 Q1476.83 1459.58 1479.88 1455 Q1482.96 1450.39 1488.77 1450.39 Z" fill="#000000" fill-rule="nonzero" fill-opacity="1" /><path clip-path="url(#clip440)" d="M1508.94 1479.7 L1513.82 1479.7 L1513.82 1485.58 L1508.94 1485.58 L1508.94 1479.7 Z" fill="#000000" fill-rule="nonzero" fill-opacity="1" /><path clip-path="url(#clip440)" d="M1534.58 1466.44 Q1531.44 1466.44 1529.58 1468.59 Q1527.75 1470.74 1527.75 1474.49 Q1527.75 1478.22 1529.58 1480.39 Q1531.44 1482.55 1534.58 1482.55 Q1537.73 1482.55 1539.56 1480.39 Q1541.41 1478.22 1541.41 1474.49 Q1541.41 1470.74 1539.56 1468.59 Q1537.73 1466.44 1534.58 1466.44 M1543.87 1451.78 L1543.87 1456.04 Q1542.11 1455.21 1540.3 1454.77 Q1538.52 1454.33 1536.76 1454.33 Q1532.13 1454.33 1529.68 1457.45 Q1527.25 1460.58 1526.9 1466.9 Q1528.26 1464.89 1530.32 1463.82 Q1532.38 1462.73 1534.86 1462.73 Q1540.07 1462.73 1543.08 1465.9 Q1546.11 1469.05 1546.11 1474.49 Q1546.11 1479.82 1542.96 1483.03 Q1539.82 1486.25 1534.58 1486.25 Q1528.59 1486.25 1525.42 1481.67 Q1522.25 1477.06 1522.25 1468.33 Q1522.25 1460.14 1526.13 1455.28 Q1530.02 1450.39 1536.57 1450.39 Q1538.33 1450.39 1540.12 1450.74 Q1541.92 1451.09 1543.87 1451.78 Z" fill="#000000" fill-rule="nonzero" fill-opacity="1" /><path clip-path="url(#clip440)" d="M1909.54 1454.1 Q1905.93 1454.1 1904.1 1457.66 Q1902.3 1461.2 1902.3 1468.33 Q1902.3 1475.44 1904.1 1479.01 Q1905.93 1482.55 1909.54 1482.55 Q1913.18 1482.55 1914.98 1479.01 Q1916.81 1475.44 1916.81 1468.33 Q1916.81 1461.2 1914.98 1457.66 Q1913.18 1454.1 1909.54 1454.1 M1909.54 1450.39 Q1915.35 1450.39 1918.41 1455 Q1921.49 1459.58 1921.49 1468.33 Q1921.49 1477.06 1918.41 1481.67 Q1915.35 1486.25 1909.54 1486.25 Q1903.73 1486.25 1900.65 1481.67 Q1897.6 1477.06 1897.6 1468.33 Q1897.6 1459.58 1900.65 1455 Q1903.73 1450.39 1909.54 1450.39 Z" fill="#000000" fill-rule="nonzero" fill-opacity="1" /><path clip-path="url(#clip440)" d="M1929.71 1479.7 L1934.59 1479.7 L1934.59 1485.58 L1929.71 1485.58 L1929.71 1479.7 Z" fill="#000000" fill-rule="nonzero" fill-opacity="1" /><path clip-path="url(#clip440)" d="M1954.78 1469.17 Q1951.44 1469.17 1949.52 1470.95 Q1947.62 1472.73 1947.62 1475.86 Q1947.62 1478.98 1949.52 1480.77 Q1951.44 1482.55 1954.78 1482.55 Q1958.11 1482.55 1960.03 1480.77 Q1961.95 1478.96 1961.95 1475.86 Q1961.95 1472.73 1960.03 1470.95 Q1958.13 1469.17 1954.78 1469.17 M1950.1 1467.18 Q1947.09 1466.44 1945.4 1464.38 Q1943.73 1462.32 1943.73 1459.35 Q1943.73 1455.21 1946.67 1452.8 Q1949.64 1450.39 1954.78 1450.39 Q1959.94 1450.39 1962.88 1452.8 Q1965.82 1455.21 1965.82 1459.35 Q1965.82 1462.32 1964.13 1464.38 Q1962.46 1466.44 1959.47 1467.18 Q1962.85 1467.96 1964.73 1470.26 Q1966.63 1472.55 1966.63 1475.86 Q1966.63 1480.88 1963.55 1483.57 Q1960.49 1486.25 1954.78 1486.25 Q1949.06 1486.25 1945.98 1483.57 Q1942.92 1480.88 1942.92 1475.86 Q1942.92 1472.55 1944.82 1470.26 Q1946.72 1467.96 1950.1 1467.18 M1948.39 1459.79 Q1948.39 1462.48 1950.05 1463.98 Q1951.74 1465.49 1954.78 1465.49 Q1957.78 1465.49 1959.47 1463.98 Q1961.19 1462.48 1961.19 1459.79 Q1961.19 1457.11 1959.47 1455.6 Q1957.78 1454.1 1954.78 1454.1 Q1951.74 1454.1 1950.05 1455.6 Q1948.39 1457.11 1948.39 1459.79 Z" fill="#000000" fill-rule="nonzero" fill-opacity="1" /><path clip-path="url(#clip440)" d="M2319.91 1481.64 L2327.55 1481.64 L2327.55 1455.28 L2319.24 1456.95 L2319.24 1452.69 L2327.5 1451.02 L2332.18 1451.02 L2332.18 1481.64 L2339.82 1481.64 L2339.82 1485.58 L2319.91 1485.58 L2319.91 1481.64 Z" fill="#000000" fill-rule="nonzero" fill-opacity="1" /><path clip-path="url(#clip440)" d="M2349.26 1479.7 L2354.14 1479.7 L2354.14 1485.58 L2349.26 1485.58 L2349.26 1479.7 Z" fill="#000000" fill-rule="nonzero" fill-opacity="1" /><path clip-path="url(#clip440)" d="M2374.33 1454.1 Q2370.72 1454.1 2368.89 1457.66 Q2367.08 1461.2 2367.08 1468.33 Q2367.08 1475.44 2368.89 1479.01 Q2370.72 1482.55 2374.33 1482.55 Q2377.96 1482.55 2379.77 1479.01 Q2381.6 1475.44 2381.6 1468.33 Q2381.6 1461.2 2379.77 1457.66 Q2377.96 1454.1 2374.33 1454.1 M2374.33 1450.39 Q2380.14 1450.39 2383.2 1455 Q2386.27 1459.58 2386.27 1468.33 Q2386.27 1477.06 2383.2 1481.67 Q2380.14 1486.25 2374.33 1486.25 Q2368.52 1486.25 2365.44 1481.67 Q2362.39 1477.06 2362.39 1468.33 Q2362.39 1459.58 2365.44 1455 Q2368.52 1450.39 2374.33 1450.39 Z" fill="#000000" fill-rule="nonzero" fill-opacity="1" /><path clip-path="url(#clip440)" d="M1318.57 1518.39 Q1318.57 1519.23 1318.22 1520.84 Q1317.09 1525.38 1312.87 1528.5 Q1312.16 1529.08 1310.91 1529.83 Q1312.42 1530.82 1313.74 1532.66 Q1315.71 1535.69 1315.71 1539.78 Q1315.71 1541.68 1315.19 1544 Q1313.74 1549.37 1308.65 1553.24 Q1303.53 1557.01 1297.45 1557.01 Q1294.16 1557.01 1291.91 1555.27 Q1289.68 1553.5 1288.82 1550.53 L1284.34 1568.6 Q1284.24 1569.05 1283.66 1569.05 L1283.34 1569.05 Q1282.66 1569.05 1282.66 1568.28 L1292.84 1527.7 Q1293.52 1524.96 1294.61 1522.39 Q1295.71 1519.81 1297.22 1517.49 Q1298.77 1515.17 1300.54 1513.46 Q1302.31 1511.73 1304.5 1510.73 Q1306.69 1509.7 1309.01 1509.7 Q1313.87 1509.7 1316.64 1513.01 Q1318.57 1515.36 1318.57 1518.39 M1314.87 1517.23 Q1314.87 1515.24 1314.06 1513.85 Q1312.42 1511.21 1308.94 1511.21 Q1306.85 1511.21 1304.85 1512.18 Q1302.89 1513.11 1301.31 1514.72 Q1299.73 1516.33 1298.38 1518.52 Q1297.03 1520.71 1296.03 1523.09 Q1295.06 1525.45 1294.42 1528.02 L1290.46 1544 Q1290.07 1545.7 1290.07 1547.22 Q1290.07 1550.82 1292.07 1553.17 Q1294.06 1555.53 1297.51 1555.53 Q1302.08 1555.53 1306.01 1552.11 Q1309.43 1549.05 1310.84 1543.67 Q1311.65 1540.29 1311.65 1537.94 Q1311.65 1535.36 1310.72 1533.37 Q1310.04 1531.76 1308.72 1530.79 Q1306.27 1531.66 1303.79 1531.66 Q1302.6 1531.66 1301.96 1531.63 Q1301.34 1531.6 1300.44 1531.47 Q1299.57 1531.34 1299.15 1530.98 Q1298.77 1530.63 1298.77 1530.08 Q1298.77 1529.76 1298.83 1529.63 Q1298.96 1529.12 1299.38 1528.76 Q1299.8 1528.41 1300.28 1528.25 Q1300.76 1528.05 1301.57 1527.96 Q1302.41 1527.86 1302.95 1527.86 Q1303.5 1527.83 1304.43 1527.83 Q1306.62 1527.83 1308.85 1528.7 Q1309.68 1528.25 1310.59 1527.44 Q1313.45 1524.77 1314.42 1520.52 Q1314.87 1518.94 1314.87 1517.23 M1306.75 1529.7 Q1305.4 1529.34 1304.37 1529.34 Q1300.6 1529.34 1300.41 1529.95 Q1300.41 1530.02 1300.54 1530.08 Q1300.67 1530.12 1300.96 1530.15 Q1301.28 1530.15 1301.54 1530.18 Q1301.83 1530.21 1302.31 1530.21 Q1302.79 1530.21 1303.05 1530.21 Q1303.34 1530.21 1303.86 1530.21 Q1305.14 1530.21 1306.75 1529.7 Z" fill="#000000" fill-rule="nonzero" fill-opacity="1" /><polyline clip-path="url(#clip440)" style="stroke:#000000; stroke-linecap:round; stroke-linejoin:round; stroke-width:4; stroke-opacity:1; fill:none" points="249.542,1423.18 249.542,47.2441 "/>
<polyline clip-path="url(#clip440)" style="stroke:#000000; stroke-linecap:round; stroke-linejoin:round; stroke-width:4; stroke-opacity:1; fill:none" points="249.542,1423.18 268.44,1423.18 "/>
<polyline clip-path="url(#clip440)" style="stroke:#000000; stroke-linecap:round; stroke-linejoin:round; stroke-width:4; stroke-opacity:1; fill:none" points="249.542,1120.76 268.44,1120.76 "/>
<polyline clip-path="url(#clip440)" style="stroke:#000000; stroke-linecap:round; stroke-linejoin:round; stroke-width:4; stroke-opacity:1; fill:none" points="249.542,818.349 268.44,818.349 "/>
<polyline clip-path="url(#clip440)" style="stroke:#000000; stroke-linecap:round; stroke-linejoin:round; stroke-width:4; stroke-opacity:1; fill:none" points="249.542,515.933 268.44,515.933 "/>
<polyline clip-path="url(#clip440)" style="stroke:#000000; stroke-linecap:round; stroke-linejoin:round; stroke-width:4; stroke-opacity:1; fill:none" points="249.542,213.517 268.44,213.517 "/>
<path clip-path="url(#clip440)" d="M126.205 1408.98 Q122.593 1408.98 120.765 1412.54 Q118.959 1416.08 118.959 1423.21 Q118.959 1430.32 120.765 1433.89 Q122.593 1437.43 126.205 1437.43 Q129.839 1437.43 131.644 1433.89 Q133.473 1430.32 133.473 1423.21 Q133.473 1416.08 131.644 1412.54 Q129.839 1408.98 126.205 1408.98 M126.205 1405.27 Q132.015 1405.27 135.07 1409.88 Q138.149 1414.46 138.149 1423.21 Q138.149 1431.94 135.07 1436.55 Q132.015 1441.13 126.205 1441.13 Q120.394 1441.13 117.316 1436.55 Q114.26 1431.94 114.26 1423.21 Q114.26 1414.46 117.316 1409.88 Q120.394 1405.27 126.205 1405.27 Z" fill="#000000" fill-rule="nonzero" fill-opacity="1" /><path clip-path="url(#clip440)" d="M146.366 1434.58 L151.251 1434.58 L151.251 1440.46 L146.366 1440.46 L146.366 1434.58 Z" fill="#000000" fill-rule="nonzero" fill-opacity="1" /><path clip-path="url(#clip440)" d="M171.436 1408.98 Q167.825 1408.98 165.996 1412.54 Q164.19 1416.08 164.19 1423.21 Q164.19 1430.32 165.996 1433.89 Q167.825 1437.43 171.436 1437.43 Q175.07 1437.43 176.876 1433.89 Q178.704 1430.32 178.704 1423.21 Q178.704 1416.08 176.876 1412.54 Q175.07 1408.98 171.436 1408.98 M171.436 1405.27 Q177.246 1405.27 180.301 1409.88 Q183.38 1414.46 183.38 1423.21 Q183.38 1431.94 180.301 1436.55 Q177.246 1441.13 171.436 1441.13 Q165.626 1441.13 162.547 1436.55 Q159.491 1431.94 159.491 1423.21 Q159.491 1414.46 162.547 1409.88 Q165.626 1405.27 171.436 1405.27 Z" fill="#000000" fill-rule="nonzero" fill-opacity="1" /><path clip-path="url(#clip440)" d="M201.598 1408.98 Q197.987 1408.98 196.158 1412.54 Q194.352 1416.08 194.352 1423.21 Q194.352 1430.32 196.158 1433.89 Q197.987 1437.43 201.598 1437.43 Q205.232 1437.43 207.037 1433.89 Q208.866 1430.32 208.866 1423.21 Q208.866 1416.08 207.037 1412.54 Q205.232 1408.98 201.598 1408.98 M201.598 1405.27 Q207.408 1405.27 210.463 1409.88 Q213.542 1414.46 213.542 1423.21 Q213.542 1431.94 210.463 1436.55 Q207.408 1441.13 201.598 1441.13 Q195.787 1441.13 192.709 1436.55 Q189.653 1431.94 189.653 1423.21 Q189.653 1414.46 192.709 1409.88 Q195.787 1405.27 201.598 1405.27 Z" fill="#000000" fill-rule="nonzero" fill-opacity="1" /><path clip-path="url(#clip440)" d="M127.2 1106.56 Q123.589 1106.56 121.76 1110.13 Q119.955 1113.67 119.955 1120.8 Q119.955 1127.91 121.76 1131.47 Q123.589 1135.01 127.2 1135.01 Q130.834 1135.01 132.64 1131.47 Q134.468 1127.91 134.468 1120.8 Q134.468 1113.67 132.64 1110.13 Q130.834 1106.56 127.2 1106.56 M127.2 1102.86 Q133.01 1102.86 136.066 1107.47 Q139.144 1112.05 139.144 1120.8 Q139.144 1129.53 136.066 1134.13 Q133.01 1138.72 127.2 1138.72 Q121.39 1138.72 118.311 1134.13 Q115.256 1129.53 115.256 1120.8 Q115.256 1112.05 118.311 1107.47 Q121.39 1102.86 127.2 1102.86 Z" fill="#000000" fill-rule="nonzero" fill-opacity="1" /><path clip-path="url(#clip440)" d="M147.362 1132.16 L152.246 1132.16 L152.246 1138.04 L147.362 1138.04 L147.362 1132.16 Z" fill="#000000" fill-rule="nonzero" fill-opacity="1" /><path clip-path="url(#clip440)" d="M166.459 1134.11 L182.778 1134.11 L182.778 1138.04 L160.834 1138.04 L160.834 1134.11 Q163.496 1131.35 168.079 1126.72 Q172.686 1122.07 173.866 1120.73 Q176.112 1118.21 176.991 1116.47 Q177.894 1114.71 177.894 1113.02 Q177.894 1110.27 175.95 1108.53 Q174.028 1106.79 170.927 1106.79 Q168.727 1106.79 166.274 1107.56 Q163.843 1108.32 161.065 1109.87 L161.065 1105.15 Q163.89 1104.02 166.343 1103.44 Q168.797 1102.86 170.834 1102.86 Q176.204 1102.86 179.399 1105.54 Q182.593 1108.23 182.593 1112.72 Q182.593 1114.85 181.783 1116.77 Q180.996 1118.67 178.889 1121.26 Q178.311 1121.93 175.209 1125.15 Q172.107 1128.35 166.459 1134.11 Z" fill="#000000" fill-rule="nonzero" fill-opacity="1" /><path clip-path="url(#clip440)" d="M192.639 1103.48 L210.996 1103.48 L210.996 1107.42 L196.922 1107.42 L196.922 1115.89 Q197.94 1115.54 198.959 1115.38 Q199.977 1115.2 200.996 1115.2 Q206.783 1115.2 210.162 1118.37 Q213.542 1121.54 213.542 1126.96 Q213.542 1132.53 210.07 1135.64 Q206.598 1138.72 200.278 1138.72 Q198.102 1138.72 195.834 1138.35 Q193.588 1137.97 191.181 1137.23 L191.181 1132.53 Q193.264 1133.67 195.487 1134.22 Q197.709 1134.78 200.186 1134.78 Q204.19 1134.78 206.528 1132.67 Q208.866 1130.57 208.866 1126.96 Q208.866 1123.35 206.528 1121.24 Q204.19 1119.13 200.186 1119.13 Q198.311 1119.13 196.436 1119.55 Q194.584 1119.97 192.639 1120.85 L192.639 1103.48 Z" fill="#000000" fill-rule="nonzero" fill-opacity="1" /><path clip-path="url(#clip440)" d="M126.205 804.147 Q122.593 804.147 120.765 807.712 Q118.959 811.254 118.959 818.383 Q118.959 825.49 120.765 829.055 Q122.593 832.596 126.205 832.596 Q129.839 832.596 131.644 829.055 Q133.473 825.49 133.473 818.383 Q133.473 811.254 131.644 807.712 Q129.839 804.147 126.205 804.147 M126.205 800.444 Q132.015 800.444 135.07 805.05 Q138.149 809.633 138.149 818.383 Q138.149 827.11 135.07 831.717 Q132.015 836.3 126.205 836.3 Q120.394 836.3 117.316 831.717 Q114.26 827.11 114.26 818.383 Q114.26 809.633 117.316 805.05 Q120.394 800.444 126.205 800.444 Z" fill="#000000" fill-rule="nonzero" fill-opacity="1" /><path clip-path="url(#clip440)" d="M146.366 829.749 L151.251 829.749 L151.251 835.629 L146.366 835.629 L146.366 829.749 Z" fill="#000000" fill-rule="nonzero" fill-opacity="1" /><path clip-path="url(#clip440)" d="M161.482 801.069 L179.839 801.069 L179.839 805.004 L165.765 805.004 L165.765 813.476 Q166.783 813.129 167.802 812.967 Q168.82 812.782 169.839 812.782 Q175.626 812.782 179.005 815.953 Q182.385 819.124 182.385 824.541 Q182.385 830.119 178.913 833.221 Q175.44 836.3 169.121 836.3 Q166.945 836.3 164.677 835.93 Q162.431 835.559 160.024 834.818 L160.024 830.119 Q162.107 831.254 164.329 831.809 Q166.552 832.365 169.028 832.365 Q173.033 832.365 175.371 830.258 Q177.709 828.152 177.709 824.541 Q177.709 820.93 175.371 818.823 Q173.033 816.717 169.028 816.717 Q167.153 816.717 165.278 817.133 Q163.427 817.55 161.482 818.43 L161.482 801.069 Z" fill="#000000" fill-rule="nonzero" fill-opacity="1" /><path clip-path="url(#clip440)" d="M201.598 804.147 Q197.987 804.147 196.158 807.712 Q194.352 811.254 194.352 818.383 Q194.352 825.49 196.158 829.055 Q197.987 832.596 201.598 832.596 Q205.232 832.596 207.037 829.055 Q208.866 825.49 208.866 818.383 Q208.866 811.254 207.037 807.712 Q205.232 804.147 201.598 804.147 M201.598 800.444 Q207.408 800.444 210.463 805.05 Q213.542 809.633 213.542 818.383 Q213.542 827.11 210.463 831.717 Q207.408 836.3 201.598 836.3 Q195.787 836.3 192.709 831.717 Q189.653 827.11 189.653 818.383 Q189.653 809.633 192.709 805.05 Q195.787 800.444 201.598 800.444 Z" fill="#000000" fill-rule="nonzero" fill-opacity="1" /><path clip-path="url(#clip440)" d="M127.2 501.732 Q123.589 501.732 121.76 505.296 Q119.955 508.838 119.955 515.968 Q119.955 523.074 121.76 526.639 Q123.589 530.181 127.2 530.181 Q130.834 530.181 132.64 526.639 Q134.468 523.074 134.468 515.968 Q134.468 508.838 132.64 505.296 Q130.834 501.732 127.2 501.732 M127.2 498.028 Q133.01 498.028 136.066 502.634 Q139.144 507.218 139.144 515.968 Q139.144 524.695 136.066 529.301 Q133.01 533.884 127.2 533.884 Q121.39 533.884 118.311 529.301 Q115.256 524.695 115.256 515.968 Q115.256 507.218 118.311 502.634 Q121.39 498.028 127.2 498.028 Z" fill="#000000" fill-rule="nonzero" fill-opacity="1" /><path clip-path="url(#clip440)" d="M147.362 527.333 L152.246 527.333 L152.246 533.213 L147.362 533.213 L147.362 527.333 Z" fill="#000000" fill-rule="nonzero" fill-opacity="1" /><path clip-path="url(#clip440)" d="M161.251 498.653 L183.473 498.653 L183.473 500.644 L170.927 533.213 L166.042 533.213 L177.848 502.588 L161.251 502.588 L161.251 498.653 Z" fill="#000000" fill-rule="nonzero" fill-opacity="1" /><path clip-path="url(#clip440)" d="M192.639 498.653 L210.996 498.653 L210.996 502.588 L196.922 502.588 L196.922 511.06 Q197.94 510.713 198.959 510.551 Q199.977 510.366 200.996 510.366 Q206.783 510.366 210.162 513.537 Q213.542 516.708 213.542 522.125 Q213.542 527.704 210.07 530.806 Q206.598 533.884 200.278 533.884 Q198.102 533.884 195.834 533.514 Q193.588 533.144 191.181 532.403 L191.181 527.704 Q193.264 528.838 195.487 529.394 Q197.709 529.949 200.186 529.949 Q204.19 529.949 206.528 527.843 Q208.866 525.736 208.866 522.125 Q208.866 518.514 206.528 516.408 Q204.19 514.301 200.186 514.301 Q198.311 514.301 196.436 514.718 Q194.584 515.134 192.639 516.014 L192.639 498.653 Z" fill="#000000" fill-rule="nonzero" fill-opacity="1" /><path clip-path="url(#clip440)" d="M117.015 226.862 L124.654 226.862 L124.654 200.497 L116.343 202.163 L116.343 197.904 L124.607 196.237 L129.283 196.237 L129.283 226.862 L136.922 226.862 L136.922 230.797 L117.015 230.797 L117.015 226.862 Z" fill="#000000" fill-rule="nonzero" fill-opacity="1" /><path clip-path="url(#clip440)" d="M146.366 224.918 L151.251 224.918 L151.251 230.797 L146.366 230.797 L146.366 224.918 Z" fill="#000000" fill-rule="nonzero" fill-opacity="1" /><path clip-path="url(#clip440)" d="M171.436 199.316 Q167.825 199.316 165.996 202.881 Q164.19 206.422 164.19 213.552 Q164.19 220.659 165.996 224.223 Q167.825 227.765 171.436 227.765 Q175.07 227.765 176.876 224.223 Q178.704 220.659 178.704 213.552 Q178.704 206.422 176.876 202.881 Q175.07 199.316 171.436 199.316 M171.436 195.612 Q177.246 195.612 180.301 200.219 Q183.38 204.802 183.38 213.552 Q183.38 222.279 180.301 226.885 Q177.246 231.469 171.436 231.469 Q165.626 231.469 162.547 226.885 Q159.491 222.279 159.491 213.552 Q159.491 204.802 162.547 200.219 Q165.626 195.612 171.436 195.612 Z" fill="#000000" fill-rule="nonzero" fill-opacity="1" /><path clip-path="url(#clip440)" d="M201.598 199.316 Q197.987 199.316 196.158 202.881 Q194.352 206.422 194.352 213.552 Q194.352 220.659 196.158 224.223 Q197.987 227.765 201.598 227.765 Q205.232 227.765 207.037 224.223 Q208.866 220.659 208.866 213.552 Q208.866 206.422 207.037 202.881 Q205.232 199.316 201.598 199.316 M201.598 195.612 Q207.408 195.612 210.463 200.219 Q213.542 204.802 213.542 213.552 Q213.542 222.279 210.463 226.885 Q207.408 231.469 201.598 231.469 Q195.787 231.469 192.709 226.885 Q189.653 222.279 189.653 213.552 Q189.653 204.802 192.709 200.219 Q195.787 195.612 201.598 195.612 Z" fill="#000000" fill-rule="nonzero" fill-opacity="1" /><path clip-path="url(#clip440)" d="M39.7075 831.676 L37.6463 831.676 Q37.8396 828.713 37.8396 825.267 Q37.8396 824.011 37.6463 818.085 L39.7075 818.085 Q39.7075 821.853 41.4144 821.853 Q41.6721 821.853 42.5416 821.467 L60.9312 814.059 L44.1197 807.328 Q42.9925 806.942 42.5416 806.942 Q41.4144 806.942 40.6093 807.715 Q39.7719 808.455 39.7075 810.098 L37.6463 810.098 Q37.8396 806.749 37.8396 804.365 Q37.8396 801.66 37.6463 799.438 L39.7075 799.438 Q39.7075 801.402 40.6093 802.787 Q41.4788 804.172 42.2518 804.623 Q42.9925 805.042 44.1197 805.492 L65.5688 814.124 Q66.8248 814.639 66.8248 815.509 Q66.8248 816.088 66.5672 816.346 Q66.3417 816.571 65.5688 816.893 L42.1551 826.394 Q40.5126 827.038 40.1262 827.876 Q39.7075 828.713 39.7075 831.676 Z" fill="#000000" fill-rule="nonzero" fill-opacity="1" /><path clip-path="url(#clip440)" d="M59.804 793.936 Q54.2001 793.936 51.2372 787.334 Q49.337 783.373 48.854 775.193 L46.4385 775.193 Q42.3484 775.193 40.1906 777.35 Q38.0006 779.476 38.0006 782.181 Q38.0006 787.012 41.0279 789.331 Q41.0923 787.366 42.0907 786.658 Q43.0569 785.949 44.0553 785.949 Q45.3757 785.949 46.2453 786.787 Q47.0826 787.592 47.0826 788.977 Q47.0826 790.297 46.2775 791.167 Q45.4401 792.036 43.9909 792.036 Q40.7703 792.036 38.6447 789.138 Q36.5191 786.207 36.5191 782.052 Q36.5191 776.642 40.1584 773.035 Q41.2856 771.908 42.7348 771.36 Q44.1841 770.78 45.1503 770.716 Q46.0843 770.652 47.9522 770.652 L61.1244 770.652 Q61.5109 770.652 62.155 770.523 Q62.7991 770.394 63.6364 769.814 Q64.4416 769.202 64.4416 768.204 Q64.4416 765.821 60.2226 765.853 L56.519 765.853 L56.519 764.178 L60.2226 764.178 Q63.7331 764.178 65.1179 766.046 Q66.4706 767.882 66.4706 769.589 Q66.4706 771.779 64.8603 773.164 Q63.25 774.548 61.06 774.742 Q63.572 775.74 65.2145 778.027 Q66.8248 780.281 66.8248 783.373 Q66.8248 785.756 66.2129 788.011 Q65.6332 790.233 63.9907 792.101 Q62.316 793.936 59.804 793.936 M59.7395 788.848 Q62.1872 788.848 63.7653 787.109 Q65.3434 785.37 65.3434 782.922 Q65.3434 780.152 63.2178 777.672 Q61.06 775.193 56.841 775.193 L50.2388 775.193 Q50.4965 782.503 53.4272 785.692 Q56.3257 788.848 59.7395 788.848 Z" fill="#000000" fill-rule="nonzero" fill-opacity="1" /><path clip-path="url(#clip440)" d="M66.0841 762.856 L64.0551 762.856 Q64.0551 759.346 63.6364 758.541 Q63.1856 757.703 61.06 757.703 L43.379 757.703 Q40.9313 757.703 40.3194 758.573 Q39.7075 759.41 39.7075 762.856 L37.6463 762.856 L36.9378 753.678 L44.1841 753.678 Q41.35 752.744 39.16 750.779 Q36.9378 748.782 36.9378 745.562 Q36.9378 743.436 38.1294 742.084 Q39.321 740.699 40.9635 740.699 Q42.4128 740.699 43.1535 741.6 Q43.8621 742.47 43.8621 743.533 Q43.8621 744.724 43.1213 745.562 Q42.3484 746.367 41.0279 746.367 Q40.2228 746.367 39.6109 746.013 Q38.9668 745.626 38.7413 745.336 Q38.5159 745.046 38.4515 744.853 Q38.3871 744.982 38.3871 745.562 Q38.3871 749.201 42.0263 751.294 Q45.6334 753.356 50.7863 753.356 L60.9312 753.356 Q62.8313 753.356 63.4432 752.583 Q64.0551 751.778 64.0551 748.331 L64.0551 746.947 L66.0841 746.947 Q65.8909 749.588 65.8909 755.32 Q65.8909 756.125 65.9231 757.381 Q65.9553 758.637 66.0197 760.28 Q66.0841 761.922 66.0841 762.856 Z" fill="#000000" fill-rule="nonzero" fill-opacity="1" /><path clip-path="url(#clip440)" d="M49.5947 737.338 Q38.4515 737.338 29.466 733.183 Q25.6979 731.412 22.5418 728.932 Q19.3856 726.452 18.0007 724.809 Q16.6159 723.167 16.6159 722.716 Q16.6159 722.072 17.26 722.04 Q17.5821 722.04 18.3872 722.909 Q29.2084 733.537 49.5947 733.505 Q70.0454 733.505 80.4479 723.167 Q81.5751 722.04 81.9294 722.04 Q82.5735 722.04 82.5735 722.716 Q82.5735 723.167 81.2531 724.745 Q79.9326 726.323 76.9053 728.771 Q73.8779 731.218 70.1742 732.99 Q61.1888 737.338 49.5947 737.338 Z" fill="#000000" fill-rule="nonzero" fill-opacity="1" /><path clip-path="url(#clip440)" d="M23.0249 668.144 L34.4257 669.465 Q35.4563 669.561 35.7784 669.722 Q36.0682 669.884 36.0682 670.399 Q36.0682 670.785 35.8428 671.011 Q35.5851 671.204 35.2953 671.204 Q35.1343 671.204 34.7156 671.172 Q34.2969 671.14 34.1037 671.14 Q32.1069 670.85 30.5932 670.85 Q27.7913 670.85 26.2777 671.687 Q24.7318 672.524 24.0232 674.682 Q23.2825 676.84 23.2825 680.898 L23.2825 690.173 Q23.2825 692.299 23.669 692.814 Q24.0554 693.297 25.859 693.748 L41.7365 697.709 L41.7365 691.494 Q41.7365 689.175 41.4466 687.79 Q41.1568 686.373 40.3516 685.439 Q39.5143 684.473 38.3871 683.957 Q37.2598 683.41 35.2309 682.862 Q34.5546 682.701 34.2969 682.54 Q34.0393 682.347 34.0393 681.929 Q34.0393 681.606 34.2647 681.381 Q34.4579 681.156 34.7478 681.156 L50.1744 684.924 Q50.9473 685.117 51.2372 685.31 Q51.4948 685.503 51.4948 685.89 Q51.4948 686.309 51.2694 686.534 Q51.044 686.759 50.7863 686.759 Q50.5287 686.759 50.0456 686.566 Q47.9522 686.083 46.825 686.083 Q46.1809 686.083 45.8588 686.147 Q45.5368 686.18 45.0859 686.47 Q44.6028 686.727 44.3773 687.307 Q44.1519 687.887 43.9909 688.982 Q43.7976 690.077 43.7976 691.719 L43.7976 698.225 L61.8007 702.734 Q62.9923 703.056 63.3144 703.056 Q63.6687 703.056 63.7975 702.895 Q63.8941 702.701 63.9585 702.186 Q64.0551 701.606 64.0551 700.737 L64.0551 691.107 Q64.0551 688.982 63.8619 687.275 Q63.6687 685.568 63.1856 684.151 Q62.7025 682.701 62.155 681.606 Q61.6075 680.511 60.6091 679.481 Q59.5785 678.45 58.6767 677.742 Q57.7428 677.001 56.1647 676.131 Q54.5866 675.262 53.2984 674.65 Q51.9779 674.038 49.8523 673.104 Q49.0794 672.846 49.0794 672.235 Q49.0794 671.88 49.2726 671.687 Q49.4337 671.494 49.5947 671.462 L49.7879 671.462 Q50.3998 671.655 50.7219 671.784 L64.9569 677.838 Q65.762 678.193 65.9231 678.482 Q66.0841 678.772 66.0841 679.9 L66.0841 714.134 Q66.0841 714.907 66.0519 715.229 Q66.0197 715.519 65.8587 715.745 Q65.6654 715.97 65.2789 715.97 Q64.667 715.97 64.4094 715.712 Q64.1195 715.455 64.0873 715.165 Q64.0551 714.875 64.0551 714.134 Q64.0551 712.524 63.9585 711.558 Q63.8619 710.592 63.7331 709.98 Q63.572 709.336 63.1212 709.014 Q62.6703 708.659 62.2838 708.498 Q61.8651 708.337 60.9312 708.112 L26.0522 699.416 Q24.8606 699.094 24.4741 699.094 Q24.0554 699.094 23.7978 699.384 Q23.5402 699.642 23.4435 700.35 Q23.3147 701.059 23.3147 701.639 Q23.2825 702.186 23.2825 703.378 Q23.2825 704.151 23.2503 704.473 Q23.2181 704.762 23.0571 704.988 Q22.896 705.213 22.5418 705.213 Q21.64 705.213 21.4468 704.827 Q21.2213 704.408 21.2213 703.249 L21.2213 669.948 Q21.2213 668.627 21.5112 668.338 Q21.7688 668.016 23.0249 668.144 Z" fill="#000000" fill-rule="nonzero" fill-opacity="1" /><path clip-path="url(#clip440)" d="M81.9294 664.075 Q81.6073 664.075 80.8022 663.238 Q69.981 652.61 49.5947 652.61 Q29.144 652.61 18.8059 662.819 Q17.6143 664.075 17.26 664.075 Q16.6159 664.075 16.6159 663.431 Q16.6159 662.98 17.9363 661.402 Q19.2568 659.792 22.2841 657.377 Q25.3115 654.929 29.0151 653.125 Q38.0006 648.778 49.5947 648.778 Q60.7379 648.778 69.7234 652.932 Q73.4914 654.704 76.6476 657.183 Q79.8038 659.663 81.1886 661.306 Q82.5735 662.948 82.5735 663.431 Q82.5735 664.075 81.9294 664.075 Z" fill="#000000" fill-rule="nonzero" fill-opacity="1" /><polyline clip-path="url(#clip442)" style="stroke:#009af9; stroke-linecap:round; stroke-linejoin:round; stroke-width:4; stroke-opacity:1; fill:none" points="459.863,1399.6 480.896,1394.32 501.928,1388.41 522.96,1381.86 543.992,1374.62 565.024,1366.68 586.056,1357.98 607.088,1348.51 628.121,1338.19 649.153,1326.99 670.185,1314.82 691.217,1301.63 712.249,1287.33 733.281,1271.85 754.313,1255.1 775.346,1237 796.378,1217.46 817.41,1196.36 838.442,1173.57 859.474,1148.92 880.506,1122.16 901.538,1093 922.57,1061.09 943.603,1026.05 964.635,987.583 985.667,945.507 1006.7,899.774 1027.73,850.417 1048.76,797.401 1069.8,740.432 1090.83,678.809 1111.86,611.457 1132.89,537.235 1153.92,455.564 1174.96,367.346 1195.99,276.012 1217.02,188.293 1238.05,114.008 1259.08,64.123 1280.12,47.2441 1301.15,66.19 1322.18,116.874 1343.21,190.236 1364.25,275.763 1385.28,364.458 1406.31,450.181 1427.34,529.591 1448.37,601.413 1469.41,665.63 1490.44,722.853 1511.47,773.929 1532.5,819.713 1553.53,860.98 1574.57,898.383 1595.6,932.457 1616.63,963.638 1637.66,992.277 1658.7,1018.66 1679.73,1043.03 1700.76,1065.58 1721.79,1086.49 1742.82,1105.91 1763.86,1123.98 1784.89,1140.8 1805.92,1156.49 1826.95,1171.14 1847.98,1184.84 1869.02,1197.67 1890.05,1209.69 1911.08,1220.97 1932.11,1231.57 1953.15,1241.54 1974.18,1250.93 1995.21,1259.78 2016.24,1268.12 2037.27,1275.99 2058.31,1283.43 2079.34,1290.46 2100.37,1297.11 2121.4,1303.41 2142.43,1309.37 2163.47,1315.01 2184.5,1320.37 2205.53,1325.44 2226.56,1330.25 2247.6,1334.81 2268.63,1339.14 2289.66,1343.25 2310.69,1347.15 2331.72,1350.85 2352.76,1354.36 "/>
</svg>
