<?xml version="1.0" encoding="utf-8"?>
<svg xmlns="http://www.w3.org/2000/svg" xmlns:xlink="http://www.w3.org/1999/xlink" width="600" height="400" viewBox="0 0 2400 1600">
<defs>
  <clipPath id="clip060">
    <rect x="0" y="0" width="2400" height="1600"/>
  </clipPath>
</defs>
<path clip-path="url(#clip060)" d="M0 1600 L2400 1600 L2400 0 L0 0  Z" fill="#ffffff" fill-rule="evenodd" fill-opacity="1"/>
<defs>
  <clipPath id="clip061">
    <rect x="249" y="47" width="2104" height="1377"/>
  </clipPath>
</defs>
<path clip-path="url(#clip060)" d="M249.542 1423.18 L2352.76 1423.18 L2352.76 47.2441 L249.542 47.2441  Z" fill="#ffffff" fill-rule="evenodd" fill-opacity="1"/>
<polyline clip-path="url(#clip061)" style="stroke:#000000; stroke-linecap:round; stroke-linejoin:round; stroke-width:2; stroke-opacity:0.1; fill:none" points="249.542,1423.18 249.542,47.2441 "/>
<polyline clip-path="url(#clip061)" style="stroke:#000000; stroke-linecap:round; stroke-linejoin:round; stroke-width:2; stroke-opacity:0.1; fill:none" points="670.185,1423.18 670.185,47.2441 "/>
<polyline clip-path="url(#clip061)" style="stroke:#000000; stroke-linecap:round; stroke-linejoin:round; stroke-width:2; stroke-opacity:0.1; fill:none" points="1090.83,1423.18 1090.83,47.2441 "/>
<polyline clip-path="url(#clip061)" style="stroke:#000000; stroke-linecap:round; stroke-linejoin:round; stroke-width:2; stroke-opacity:0.1; fill:none" points="1511.47,1423.18 1511.47,47.2441 "/>
<polyline clip-path="url(#clip061)" style="stroke:#000000; stroke-linecap:round; stroke-linejoin:round; stroke-width:2; stroke-opacity:0.1; fill:none" points="1932.11,1423.18 1932.11,47.2441 "/>
<polyline clip-path="url(#clip061)" style="stroke:#000000; stroke-linecap:round; stroke-linejoin:round; stroke-width:2; stroke-opacity:0.1; fill:none" points="2352.76,1423.18 2352.76,47.2441 "/>
<polyline clip-path="url(#clip061)" style="stroke:#000000; stroke-linecap:round; stroke-linejoin:round; stroke-width:2; stroke-opacity:0.1; fill:none" points="249.542,1423.18 2352.76,1423.18 "/>
<polyline clip-path="url(#clip061)" style="stroke:#000000; stroke-linecap:round; stroke-linejoin:round; stroke-width:2; stroke-opacity:0.1; fill:none" points="249.542,1116.84 2352.76,1116.84 "/>
<polyline clip-path="url(#clip061)" style="stroke:#000000; stroke-linecap:round; stroke-linejoin:round; stroke-width:2; stroke-opacity:0.1; fill:none" points="249.542,810.495 2352.76,810.495 "/>
<polyline clip-path="url(#clip061)" style="stroke:#000000; stroke-linecap:round; stroke-linejoin:round; stroke-width:2; stroke-opacity:0.1; fill:none" points="249.542,504.153 2352.76,504.153 "/>
<polyline clip-path="url(#clip061)" style="stroke:#000000; stroke-linecap:round; stroke-linejoin:round; stroke-width:2; stroke-opacity:0.1; fill:none" points="249.542,197.811 2352.76,197.811 "/>
<polyline clip-path="url(#clip060)" style="stroke:#000000; stroke-linecap:round; stroke-linejoin:round; stroke-width:4; stroke-opacity:1; fill:none" points="249.542,1423.18 2352.76,1423.18 "/>
<polyline clip-path="url(#clip060)" style="stroke:#000000; stroke-linecap:round; stroke-linejoin:round; stroke-width:4; stroke-opacity:1; fill:none" points="249.542,1423.18 249.542,1404.28 "/>
<polyline clip-path="url(#clip060)" style="stroke:#000000; stroke-linecap:round; stroke-linejoin:round; stroke-width:4; stroke-opacity:1; fill:none" points="670.185,1423.18 670.185,1404.28 "/>
<polyline clip-path="url(#clip060)" style="stroke:#000000; stroke-linecap:round; stroke-linejoin:round; stroke-width:4; stroke-opacity:1; fill:none" points="1090.83,1423.18 1090.83,1404.28 "/>
<polyline clip-path="url(#clip060)" style="stroke:#000000; stroke-linecap:round; stroke-linejoin:round; stroke-width:4; stroke-opacity:1; fill:none" points="1511.47,1423.18 1511.47,1404.28 "/>
<polyline clip-path="url(#clip060)" style="stroke:#000000; stroke-linecap:round; stroke-linejoin:round; stroke-width:4; stroke-opacity:1; fill:none" points="1932.11,1423.18 1932.11,1404.28 "/>
<polyline clip-path="url(#clip060)" style="stroke:#000000; stroke-linecap:round; stroke-linejoin:round; stroke-width:4; stroke-opacity:1; fill:none" points="2352.76,1423.18 2352.76,1404.28 "/>
<path clip-path="url(#clip060)" d="M226.926 1454.1 Q223.315 1454.1 221.487 1457.66 Q219.681 1461.2 219.681 1468.33 Q219.681 1475.44 221.487 1479.01 Q223.315 1482.55 226.926 1482.55 Q230.561 1482.55 232.366 1479.01 Q234.195 1475.44 234.195 1468.33 Q234.195 1461.2 232.366 1457.66 Q230.561 1454.1 226.926 1454.1 M226.926 1450.39 Q232.737 1450.39 235.792 1455 Q238.871 1459.58 238.871 1468.33 Q238.871 1477.06 235.792 1481.67 Q232.737 1486.25 226.926 1486.25 Q221.116 1486.25 218.038 1481.67 Q214.982 1477.06 214.982 1468.33 Q214.982 1459.58 218.038 1455 Q221.116 1450.39 226.926 1450.39 Z" fill="#000000" fill-rule="nonzero" fill-opacity="1" /><path clip-path="url(#clip060)" d="M247.088 1479.7 L251.973 1479.7 L251.973 1485.58 L247.088 1485.58 L247.088 1479.7 Z" fill="#000000" fill-rule="nonzero" fill-opacity="1" /><path clip-path="url(#clip060)" d="M272.158 1454.1 Q268.547 1454.1 266.718 1457.66 Q264.912 1461.2 264.912 1468.33 Q264.912 1475.44 266.718 1479.01 Q268.547 1482.55 272.158 1482.55 Q275.792 1482.55 277.597 1479.01 Q279.426 1475.44 279.426 1468.33 Q279.426 1461.2 277.597 1457.66 Q275.792 1454.1 272.158 1454.1 M272.158 1450.39 Q277.968 1450.39 281.023 1455 Q284.102 1459.58 284.102 1468.33 Q284.102 1477.06 281.023 1481.67 Q277.968 1486.25 272.158 1486.25 Q266.347 1486.25 263.269 1481.67 Q260.213 1477.06 260.213 1468.33 Q260.213 1459.58 263.269 1455 Q266.347 1450.39 272.158 1450.39 Z" fill="#000000" fill-rule="nonzero" fill-opacity="1" /><path clip-path="url(#clip060)" d="M648.368 1454.1 Q644.757 1454.1 642.928 1457.66 Q641.122 1461.2 641.122 1468.33 Q641.122 1475.44 642.928 1479.01 Q644.757 1482.55 648.368 1482.55 Q652.002 1482.55 653.808 1479.01 Q655.636 1475.44 655.636 1468.33 Q655.636 1461.2 653.808 1457.66 Q652.002 1454.1 648.368 1454.1 M648.368 1450.39 Q654.178 1450.39 657.233 1455 Q660.312 1459.58 660.312 1468.33 Q660.312 1477.06 657.233 1481.67 Q654.178 1486.25 648.368 1486.25 Q642.558 1486.25 639.479 1481.67 Q636.423 1477.06 636.423 1468.33 Q636.423 1459.58 639.479 1455 Q642.558 1450.39 648.368 1450.39 Z" fill="#000000" fill-rule="nonzero" fill-opacity="1" /><path clip-path="url(#clip060)" d="M668.53 1479.7 L673.414 1479.7 L673.414 1485.58 L668.53 1485.58 L668.53 1479.7 Z" fill="#000000" fill-rule="nonzero" fill-opacity="1" /><path clip-path="url(#clip060)" d="M687.627 1481.64 L703.946 1481.64 L703.946 1485.58 L682.002 1485.58 L682.002 1481.64 Q684.664 1478.89 689.247 1474.26 Q693.854 1469.61 695.034 1468.27 Q697.28 1465.74 698.159 1464.01 Q699.062 1462.25 699.062 1460.56 Q699.062 1457.8 697.118 1456.07 Q695.196 1454.33 692.094 1454.33 Q689.895 1454.33 687.442 1455.09 Q685.011 1455.86 682.233 1457.41 L682.233 1452.69 Q685.057 1451.55 687.511 1450.97 Q689.965 1450.39 692.002 1450.39 Q697.372 1450.39 700.567 1453.08 Q703.761 1455.77 703.761 1460.26 Q703.761 1462.39 702.951 1464.31 Q702.164 1466.2 700.057 1468.8 Q699.479 1469.47 696.377 1472.69 Q693.275 1475.88 687.627 1481.64 Z" fill="#000000" fill-rule="nonzero" fill-opacity="1" /><path clip-path="url(#clip060)" d="M1067.97 1454.1 Q1064.36 1454.1 1062.53 1457.66 Q1060.72 1461.2 1060.72 1468.33 Q1060.72 1475.44 1062.53 1479.01 Q1064.36 1482.55 1067.97 1482.55 Q1071.6 1482.55 1073.41 1479.01 Q1075.24 1475.44 1075.24 1468.33 Q1075.24 1461.2 1073.41 1457.66 Q1071.6 1454.1 1067.97 1454.1 M1067.97 1450.39 Q1073.78 1450.39 1076.83 1455 Q1079.91 1459.58 1079.91 1468.33 Q1079.91 1477.06 1076.83 1481.67 Q1073.78 1486.25 1067.97 1486.25 Q1062.16 1486.25 1059.08 1481.67 Q1056.02 1477.06 1056.02 1468.33 Q1056.02 1459.58 1059.08 1455 Q1062.16 1450.39 1067.97 1450.39 Z" fill="#000000" fill-rule="nonzero" fill-opacity="1" /><path clip-path="url(#clip060)" d="M1088.13 1479.7 L1093.02 1479.7 L1093.02 1485.58 L1088.13 1485.58 L1088.13 1479.7 Z" fill="#000000" fill-rule="nonzero" fill-opacity="1" /><path clip-path="url(#clip060)" d="M1116.05 1455.09 L1104.24 1473.54 L1116.05 1473.54 L1116.05 1455.09 M1114.82 1451.02 L1120.7 1451.02 L1120.7 1473.54 L1125.63 1473.54 L1125.63 1477.43 L1120.7 1477.43 L1120.7 1485.58 L1116.05 1485.58 L1116.05 1477.43 L1100.45 1477.43 L1100.45 1472.92 L1114.82 1451.02 Z" fill="#000000" fill-rule="nonzero" fill-opacity="1" /><path clip-path="url(#clip060)" d="M1488.77 1454.1 Q1485.16 1454.1 1483.33 1457.66 Q1481.53 1461.2 1481.53 1468.33 Q1481.53 1475.44 1483.33 1479.01 Q1485.16 1482.55 1488.77 1482.55 Q1492.41 1482.55 1494.21 1479.01 Q1496.04 1475.44 1496.04 1468.33 Q1496.04 1461.2 1494.21 1457.66 Q1492.41 1454.1 1488.77 1454.1 M1488.77 1450.39 Q1494.58 1450.39 1497.64 1455 Q1500.72 1459.58 1500.72 1468.33 Q1500.72 1477.06 1497.64 1481.67 Q1494.58 1486.25 1488.77 1486.25 Q1482.96 1486.25 1479.88 1481.67 Q1476.83 1477.06 1476.83 1468.33 Q1476.83 1459.58 1479.88 1455 Q1482.96 1450.39 1488.77 1450.39 Z" fill="#000000" fill-rule="nonzero" fill-opacity="1" /><path clip-path="url(#clip060)" d="M1508.94 1479.7 L1513.82 1479.7 L1513.82 1485.58 L1508.94 1485.58 L1508.94 1479.7 Z" fill="#000000" fill-rule="nonzero" fill-opacity="1" /><path clip-path="url(#clip060)" d="M1534.58 1466.44 Q1531.44 1466.44 1529.58 1468.59 Q1527.75 1470.74 1527.75 1474.49 Q1527.75 1478.22 1529.58 1480.39 Q1531.44 1482.55 1534.58 1482.55 Q1537.73 1482.55 1539.56 1480.39 Q1541.41 1478.22 1541.41 1474.49 Q1541.41 1470.74 1539.56 1468.59 Q1537.73 1466.44 1534.58 1466.44 M1543.87 1451.78 L1543.87 1456.04 Q1542.11 1455.21 1540.3 1454.77 Q1538.52 1454.33 1536.76 1454.33 Q1532.13 1454.33 1529.68 1457.45 Q1527.25 1460.58 1526.9 1466.9 Q1528.26 1464.89 1530.32 1463.82 Q1532.38 1462.73 1534.86 1462.73 Q1540.07 1462.73 1543.08 1465.9 Q1546.11 1469.05 1546.11 1474.49 Q1546.11 1479.82 1542.96 1483.03 Q1539.82 1486.25 1534.58 1486.25 Q1528.59 1486.25 1525.42 1481.67 Q1522.25 1477.06 1522.25 1468.33 Q1522.25 1460.14 1526.13 1455.28 Q1530.02 1450.39 1536.57 1450.39 Q1538.33 1450.39 1540.12 1450.74 Q1541.92 1451.09 1543.87 1451.78 Z" fill="#000000" fill-rule="nonzero" fill-opacity="1" /><path clip-path="url(#clip060)" d="M1909.54 1454.1 Q1905.93 1454.1 1904.1 1457.66 Q1902.3 1461.2 1902.3 1468.33 Q1902.3 1475.44 1904.1 1479.01 Q1905.93 1482.55 1909.54 1482.55 Q1913.18 1482.55 1914.98 1479.01 Q1916.81 1475.44 1916.81 1468.33 Q1916.81 1461.2 1914.98 1457.66 Q1913.18 1454.1 1909.54 1454.1 M1909.54 1450.39 Q1915.35 1450.39 1918.41 1455 Q1921.49 1459.58 1921.49 1468.33 Q1921.49 1477.06 1918.41 1481.67 Q1915.35 1486.25 1909.54 1486.25 Q1903.73 1486.25 1900.65 1481.67 Q1897.6 1477.06 1897.6 1468.33 Q1897.6 1459.58 1900.65 1455 Q1903.73 1450.39 1909.54 1450.39 Z" fill="#000000" fill-rule="nonzero" fill-opacity="1" /><path clip-path="url(#clip060)" d="M1929.71 1479.7 L1934.59 1479.7 L1934.59 1485.58 L1929.71 1485.58 L1929.71 1479.7 Z" fill="#000000" fill-rule="nonzero" fill-opacity="1" /><path clip-path="url(#clip060)" d="M1954.78 1469.17 Q1951.44 1469.17 1949.52 1470.95 Q1947.62 1472.73 1947.62 1475.86 Q1947.62 1478.98 1949.52 1480.77 Q1951.44 1482.55 1954.78 1482.55 Q1958.11 1482.55 1960.03 1480.77 Q1961.95 1478.96 1961.95 1475.86 Q1961.95 1472.73 1960.03 1470.95 Q1958.13 1469.17 1954.78 1469.17 M1950.1 1467.18 Q1947.09 1466.44 1945.4 1464.38 Q1943.73 1462.32 1943.73 1459.35 Q1943.73 1455.21 1946.67 1452.8 Q1949.64 1450.39 1954.78 1450.39 Q1959.94 1450.39 1962.88 1452.8 Q1965.82 1455.21 1965.82 1459.35 Q1965.82 1462.32 1964.13 1464.38 Q1962.46 1466.44 1959.47 1467.18 Q1962.85 1467.96 1964.73 1470.26 Q1966.63 1472.55 1966.63 1475.86 Q1966.63 1480.88 1963.55 1483.57 Q1960.49 1486.25 1954.78 1486.25 Q1949.06 1486.25 1945.98 1483.57 Q1942.92 1480.88 1942.92 1475.86 Q1942.92 1472.55 1944.82 1470.26 Q1946.72 1467.96 1950.1 1467.18 M1948.39 1459.79 Q1948.39 1462.48 1950.05 1463.98 Q1951.74 1465.49 1954.78 1465.49 Q1957.78 1465.49 1959.47 1463.98 Q1961.19 1462.48 1961.19 1459.79 Q1961.19 1457.11 1959.47 1455.6 Q1957.78 1454.1 1954.78 1454.1 Q1951.74 1454.1 1950.05 1455.6 Q1948.39 1457.11 1948.39 1459.79 Z" fill="#000000" fill-rule="nonzero" fill-opacity="1" /><path clip-path="url(#clip060)" d="M2319.91 1481.64 L2327.55 1481.64 L2327.55 1455.28 L2319.24 1456.95 L2319.24 1452.69 L2327.5 1451.02 L2332.18 1451.02 L2332.18 1481.64 L2339.82 1481.64 L2339.82 1485.58 L2319.91 1485.58 L2319.91 1481.64 Z" fill="#000000" fill-rule="nonzero" fill-opacity="1" /><path clip-path="url(#clip060)" d="M2349.26 1479.7 L2354.14 1479.7 L2354.14 1485.58 L2349.26 1485.58 L2349.26 1479.7 Z" fill="#000000" fill-rule="nonzero" fill-opacity="1" /><path clip-path="url(#clip060)" d="M2374.33 1454.1 Q2370.72 1454.1 2368.89 1457.66 Q2367.08 1461.2 2367.08 1468.33 Q2367.08 1475.44 2368.89 1479.01 Q2370.72 1482.55 2374.33 1482.55 Q2377.96 1482.55 2379.77 1479.01 Q2381.6 1475.44 2381.6 1468.33 Q2381.6 1461.2 2379.77 1457.66 Q2377.96 1454.1 2374.33 1454.1 M2374.33 1450.39 Q2380.14 1450.39 2383.2 1455 Q2386.27 1459.58 2386.27 1468.33 Q2386.27 1477.06 2383.2 1481.67 Q2380.14 1486.25 2374.33 1486.25 Q2368.52 1486.25 2365.44 1481.67 Q2362.39 1477.06 2362.39 1468.33 Q2362.39 1459.58 2365.44 1455 Q2368.52 1450.39 2374.33 1450.39 Z" fill="#000000" fill-rule="nonzero" fill-opacity="1" /><path clip-path="url(#clip060)" d="M1318.57 1518.39 Q1318.57 1519.23 1318.22 1520.84 Q1317.09 1525.38 1312.87 1528.5 Q1312.16 1529.08 1310.91 1529.83 Q1312.42 1530.82 1313.74 1532.66 Q1315.71 1535.69 1315.71 1539.78 Q1315.71 1541.68 1315.19 1544 Q1313.74 1549.37 1308.65 1553.24 Q1303.53 1557.01 1297.45 1557.01 Q1294.16 1557.01 1291.91 1555.27 Q1289.68 1553.5 1288.82 1550.53 L1284.34 1568.6 Q1284.24 1569.05 1283.66 1569.05 L1283.34 1569.05 Q1282.66 1569.05 1282.66 1568.28 L1292.84 1527.7 Q1293.52 1524.96 1294.61 1522.39 Q1295.71 1519.81 1297.22 1517.49 Q1298.77 1515.17 1300.54 1513.46 Q1302.31 1511.73 1304.5 1510.73 Q1306.69 1509.7 1309.01 1509.7 Q1313.87 1509.7 1316.64 1513.01 Q1318.57 1515.36 1318.57 1518.39 M1314.87 1517.23 Q1314.87 1515.24 1314.06 1513.85 Q1312.42 1511.21 1308.94 1511.21 Q1306.85 1511.21 1304.85 1512.18 Q1302.89 1513.11 1301.31 1514.72 Q1299.73 1516.33 1298.38 1518.52 Q1297.03 1520.71 1296.03 1523.09 Q1295.06 1525.45 1294.42 1528.02 L1290.46 1544 Q1290.07 1545.7 1290.07 1547.22 Q1290.07 1550.82 1292.07 1553.17 Q1294.06 1555.53 1297.51 1555.53 Q1302.08 1555.53 1306.01 1552.11 Q1309.43 1549.05 1310.84 1543.67 Q1311.65 1540.29 1311.65 1537.94 Q1311.65 1535.36 1310.72 1533.37 Q1310.04 1531.76 1308.72 1530.79 Q1306.27 1531.66 1303.79 1531.66 Q1302.6 1531.66 1301.96 1531.63 Q1301.34 1531.6 1300.44 1531.47 Q1299.57 1531.34 1299.15 1530.98 Q1298.77 1530.63 1298.77 1530.08 Q1298.77 1529.76 1298.83 1529.63 Q1298.96 1529.12 1299.38 1528.76 Q1299.8 1528.41 1300.28 1528.25 Q1300.76 1528.05 1301.57 1527.96 Q1302.41 1527.86 1302.95 1527.86 Q1303.5 1527.83 1304.43 1527.83 Q1306.62 1527.83 1308.85 1528.7 Q1309.68 1528.25 1310.59 1527.44 Q1313.45 1524.77 1314.42 1520.52 Q1314.87 1518.94 1314.87 1517.23 M1306.75 1529.7 Q1305.4 1529.34 1304.37 1529.34 Q1300.6 1529.34 1300.41 1529.95 Q1300.41 1530.02 1300.54 1530.08 Q1300.67 1530.12 1300.96 1530.15 Q1301.28 1530.15 1301.54 1530.18 Q1301.83 1530.21 1302.31 1530.21 Q1302.79 1530.21 1303.05 1530.21 Q1303.34 1530.21 1303.86 1530.21 Q1305.14 1530.21 1306.75 1529.7 Z" fill="#000000" fill-rule="nonzero" fill-opacity="1" /><polyline clip-path="url(#clip060)" style="stroke:#000000; stroke-linecap:round; stroke-linejoin:round; stroke-width:4; stroke-opacity:1; fill:none" points="249.542,1423.18 249.542,47.2441 "/>
<polyline clip-path="url(#clip060)" style="stroke:#000000; stroke-linecap:round; stroke-linejoin:round; stroke-width:4; stroke-opacity:1; fill:none" points="249.542,1423.18 268.44,1423.18 "/>
<polyline clip-path="url(#clip060)" style="stroke:#000000; stroke-linecap:round; stroke-linejoin:round; stroke-width:4; stroke-opacity:1; fill:none" points="249.542,1116.84 268.44,1116.84 "/>
<polyline clip-path="url(#clip060)" style="stroke:#000000; stroke-linecap:round; stroke-linejoin:round; stroke-width:4; stroke-opacity:1; fill:none" points="249.542,810.495 268.44,810.495 "/>
<polyline clip-path="url(#clip060)" style="stroke:#000000; stroke-linecap:round; stroke-linejoin:round; stroke-width:4; stroke-opacity:1; fill:none" points="249.542,504.153 268.44,504.153 "/>
<polyline clip-path="url(#clip060)" style="stroke:#000000; stroke-linecap:round; stroke-linejoin:round; stroke-width:4; stroke-opacity:1; fill:none" points="249.542,197.811 268.44,197.811 "/>
<path clip-path="url(#clip060)" d="M126.205 1408.98 Q122.593 1408.98 120.765 1412.54 Q118.959 1416.08 118.959 1423.21 Q118.959 1430.32 120.765 1433.89 Q122.593 1437.43 126.205 1437.43 Q129.839 1437.43 131.644 1433.89 Q133.473 1430.32 133.473 1423.21 Q133.473 1416.08 131.644 1412.54 Q129.839 1408.98 126.205 1408.98 M126.205 1405.27 Q132.015 1405.27 135.07 1409.88 Q138.149 1414.46 138.149 1423.21 Q138.149 1431.94 135.07 1436.55 Q132.015 1441.13 126.205 1441.13 Q120.394 1441.13 117.316 1436.55 Q114.26 1431.94 114.26 1423.21 Q114.26 1414.46 117.316 1409.88 Q120.394 1405.27 126.205 1405.27 Z" fill="#000000" fill-rule="nonzero" fill-opacity="1" /><path clip-path="url(#clip060)" d="M146.366 1434.58 L151.251 1434.58 L151.251 1440.46 L146.366 1440.46 L146.366 1434.58 Z" fill="#000000" fill-rule="nonzero" fill-opacity="1" /><path clip-path="url(#clip060)" d="M171.436 1408.98 Q167.825 1408.98 165.996 1412.54 Q164.19 1416.08 164.19 1423.21 Q164.19 1430.32 165.996 1433.89 Q167.825 1437.43 171.436 1437.43 Q175.07 1437.43 176.876 1433.89 Q178.704 1430.32 178.704 1423.21 Q178.704 1416.08 176.876 1412.54 Q175.07 1408.98 171.436 1408.98 M171.436 1405.27 Q177.246 1405.27 180.301 1409.88 Q183.38 1414.46 183.38 1423.21 Q183.38 1431.94 180.301 1436.55 Q177.246 1441.13 171.436 1441.13 Q165.626 1441.13 162.547 1436.55 Q159.491 1431.94 159.491 1423.21 Q159.491 1414.46 162.547 1409.88 Q165.626 1405.27 171.436 1405.27 Z" fill="#000000" fill-rule="nonzero" fill-opacity="1" /><path clip-path="url(#clip060)" d="M201.598 1408.98 Q197.987 1408.98 196.158 1412.54 Q194.352 1416.08 194.352 1423.21 Q194.352 1430.32 196.158 1433.89 Q197.987 1437.43 201.598 1437.43 Q205.232 1437.43 207.037 1433.89 Q208.866 1430.32 208.866 1423.21 Q208.866 1416.08 207.037 1412.54 Q205.232 1408.98 201.598 1408.98 M201.598 1405.27 Q207.408 1405.27 210.463 1409.88 Q213.542 1414.46 213.542 1423.21 Q213.542 1431.94 210.463 1436.55 Q207.408 1441.13 201.598 1441.13 Q195.787 1441.13 192.709 1436.55 Q189.653 1431.94 189.653 1423.21 Q189.653 1414.46 192.709 1409.88 Q195.787 1405.27 201.598 1405.27 Z" fill="#000000" fill-rule="nonzero" fill-opacity="1" /><path clip-path="url(#clip060)" d="M127.2 1102.64 Q123.589 1102.64 121.76 1106.2 Q119.955 1109.74 119.955 1116.87 Q119.955 1123.98 121.76 1127.54 Q123.589 1131.09 127.2 1131.09 Q130.834 1131.09 132.64 1127.54 Q134.468 1123.98 134.468 1116.87 Q134.468 1109.74 132.64 1106.2 Q130.834 1102.64 127.2 1102.64 M127.2 1098.93 Q133.01 1098.93 136.066 1103.54 Q139.144 1108.12 139.144 1116.87 Q139.144 1125.6 136.066 1130.21 Q133.01 1134.79 127.2 1134.79 Q121.39 1134.79 118.311 1130.21 Q115.256 1125.6 115.256 1116.87 Q115.256 1108.12 118.311 1103.54 Q121.39 1098.93 127.2 1098.93 Z" fill="#000000" fill-rule="nonzero" fill-opacity="1" /><path clip-path="url(#clip060)" d="M147.362 1128.24 L152.246 1128.24 L152.246 1134.12 L147.362 1134.12 L147.362 1128.24 Z" fill="#000000" fill-rule="nonzero" fill-opacity="1" /><path clip-path="url(#clip060)" d="M166.459 1130.18 L182.778 1130.18 L182.778 1134.12 L160.834 1134.12 L160.834 1130.18 Q163.496 1127.43 168.079 1122.8 Q172.686 1118.15 173.866 1116.8 Q176.112 1114.28 176.991 1112.54 Q177.894 1110.78 177.894 1109.09 Q177.894 1106.34 175.95 1104.6 Q174.028 1102.87 170.927 1102.87 Q168.727 1102.87 166.274 1103.63 Q163.843 1104.4 161.065 1105.95 L161.065 1101.22 Q163.89 1100.09 166.343 1099.51 Q168.797 1098.93 170.834 1098.93 Q176.204 1098.93 179.399 1101.62 Q182.593 1104.3 182.593 1108.79 Q182.593 1110.92 181.783 1112.84 Q180.996 1114.74 178.889 1117.34 Q178.311 1118.01 175.209 1121.22 Q172.107 1124.42 166.459 1130.18 Z" fill="#000000" fill-rule="nonzero" fill-opacity="1" /><path clip-path="url(#clip060)" d="M192.639 1099.56 L210.996 1099.56 L210.996 1103.49 L196.922 1103.49 L196.922 1111.96 Q197.94 1111.62 198.959 1111.46 Q199.977 1111.27 200.996 1111.27 Q206.783 1111.27 210.162 1114.44 Q213.542 1117.61 213.542 1123.03 Q213.542 1128.61 210.07 1131.71 Q206.598 1134.79 200.278 1134.79 Q198.102 1134.79 195.834 1134.42 Q193.588 1134.05 191.181 1133.31 L191.181 1128.61 Q193.264 1129.74 195.487 1130.3 Q197.709 1130.85 200.186 1130.85 Q204.19 1130.85 206.528 1128.75 Q208.866 1126.64 208.866 1123.03 Q208.866 1119.42 206.528 1117.31 Q204.19 1115.21 200.186 1115.21 Q198.311 1115.21 196.436 1115.62 Q194.584 1116.04 192.639 1116.92 L192.639 1099.56 Z" fill="#000000" fill-rule="nonzero" fill-opacity="1" /><path clip-path="url(#clip060)" d="M126.205 796.294 Q122.593 796.294 120.765 799.859 Q118.959 803.4 118.959 810.53 Q118.959 817.637 120.765 821.201 Q122.593 824.743 126.205 824.743 Q129.839 824.743 131.644 821.201 Q133.473 817.637 133.473 810.53 Q133.473 803.4 131.644 799.859 Q129.839 796.294 126.205 796.294 M126.205 792.59 Q132.015 792.59 135.07 797.197 Q138.149 801.78 138.149 810.53 Q138.149 819.257 135.07 823.863 Q132.015 828.447 126.205 828.447 Q120.394 828.447 117.316 823.863 Q114.26 819.257 114.26 810.53 Q114.26 801.78 117.316 797.197 Q120.394 792.59 126.205 792.59 Z" fill="#000000" fill-rule="nonzero" fill-opacity="1" /><path clip-path="url(#clip060)" d="M146.366 821.896 L151.251 821.896 L151.251 827.775 L146.366 827.775 L146.366 821.896 Z" fill="#000000" fill-rule="nonzero" fill-opacity="1" /><path clip-path="url(#clip060)" d="M161.482 793.215 L179.839 793.215 L179.839 797.151 L165.765 797.151 L165.765 805.623 Q166.783 805.275 167.802 805.113 Q168.82 804.928 169.839 804.928 Q175.626 804.928 179.005 808.1 Q182.385 811.271 182.385 816.687 Q182.385 822.266 178.913 825.368 Q175.44 828.447 169.121 828.447 Q166.945 828.447 164.677 828.076 Q162.431 827.706 160.024 826.965 L160.024 822.266 Q162.107 823.4 164.329 823.956 Q166.552 824.511 169.028 824.511 Q173.033 824.511 175.371 822.405 Q177.709 820.299 177.709 816.687 Q177.709 813.076 175.371 810.97 Q173.033 808.863 169.028 808.863 Q167.153 808.863 165.278 809.28 Q163.427 809.697 161.482 810.576 L161.482 793.215 Z" fill="#000000" fill-rule="nonzero" fill-opacity="1" /><path clip-path="url(#clip060)" d="M201.598 796.294 Q197.987 796.294 196.158 799.859 Q194.352 803.4 194.352 810.53 Q194.352 817.637 196.158 821.201 Q197.987 824.743 201.598 824.743 Q205.232 824.743 207.037 821.201 Q208.866 817.637 208.866 810.53 Q208.866 803.4 207.037 799.859 Q205.232 796.294 201.598 796.294 M201.598 792.59 Q207.408 792.59 210.463 797.197 Q213.542 801.78 213.542 810.53 Q213.542 819.257 210.463 823.863 Q207.408 828.447 201.598 828.447 Q195.787 828.447 192.709 823.863 Q189.653 819.257 189.653 810.53 Q189.653 801.78 192.709 797.197 Q195.787 792.59 201.598 792.59 Z" fill="#000000" fill-rule="nonzero" fill-opacity="1" /><path clip-path="url(#clip060)" d="M127.2 489.952 Q123.589 489.952 121.76 493.517 Q119.955 497.058 119.955 504.188 Q119.955 511.294 121.76 514.859 Q123.589 518.401 127.2 518.401 Q130.834 518.401 132.64 514.859 Q134.468 511.294 134.468 504.188 Q134.468 497.058 132.64 493.517 Q130.834 489.952 127.2 489.952 M127.2 486.248 Q133.01 486.248 136.066 490.855 Q139.144 495.438 139.144 504.188 Q139.144 512.915 136.066 517.521 Q133.01 522.104 127.2 522.104 Q121.39 522.104 118.311 517.521 Q115.256 512.915 115.256 504.188 Q115.256 495.438 118.311 490.855 Q121.39 486.248 127.2 486.248 Z" fill="#000000" fill-rule="nonzero" fill-opacity="1" /><path clip-path="url(#clip060)" d="M147.362 515.554 L152.246 515.554 L152.246 521.433 L147.362 521.433 L147.362 515.554 Z" fill="#000000" fill-rule="nonzero" fill-opacity="1" /><path clip-path="url(#clip060)" d="M161.251 486.873 L183.473 486.873 L183.473 488.864 L170.927 521.433 L166.042 521.433 L177.848 490.808 L161.251 490.808 L161.251 486.873 Z" fill="#000000" fill-rule="nonzero" fill-opacity="1" /><path clip-path="url(#clip060)" d="M192.639 486.873 L210.996 486.873 L210.996 490.808 L196.922 490.808 L196.922 499.28 Q197.94 498.933 198.959 498.771 Q199.977 498.586 200.996 498.586 Q206.783 498.586 210.162 501.757 Q213.542 504.929 213.542 510.345 Q213.542 515.924 210.07 519.026 Q206.598 522.104 200.278 522.104 Q198.102 522.104 195.834 521.734 Q193.588 521.364 191.181 520.623 L191.181 515.924 Q193.264 517.058 195.487 517.614 Q197.709 518.169 200.186 518.169 Q204.19 518.169 206.528 516.063 Q208.866 513.956 208.866 510.345 Q208.866 506.734 206.528 504.628 Q204.19 502.521 200.186 502.521 Q198.311 502.521 196.436 502.938 Q194.584 503.354 192.639 504.234 L192.639 486.873 Z" fill="#000000" fill-rule="nonzero" fill-opacity="1" /><path clip-path="url(#clip060)" d="M117.015 211.156 L124.654 211.156 L124.654 184.79 L116.343 186.457 L116.343 182.198 L124.607 180.531 L129.283 180.531 L129.283 211.156 L136.922 211.156 L136.922 215.091 L117.015 215.091 L117.015 211.156 Z" fill="#000000" fill-rule="nonzero" fill-opacity="1" /><path clip-path="url(#clip060)" d="M146.366 209.211 L151.251 209.211 L151.251 215.091 L146.366 215.091 L146.366 209.211 Z" fill="#000000" fill-rule="nonzero" fill-opacity="1" /><path clip-path="url(#clip060)" d="M171.436 183.61 Q167.825 183.61 165.996 187.174 Q164.19 190.716 164.19 197.846 Q164.19 204.952 165.996 208.517 Q167.825 212.058 171.436 212.058 Q175.07 212.058 176.876 208.517 Q178.704 204.952 178.704 197.846 Q178.704 190.716 176.876 187.174 Q175.07 183.61 171.436 183.61 M171.436 179.906 Q177.246 179.906 180.301 184.512 Q183.38 189.096 183.38 197.846 Q183.38 206.572 180.301 211.179 Q177.246 215.762 171.436 215.762 Q165.626 215.762 162.547 211.179 Q159.491 206.572 159.491 197.846 Q159.491 189.096 162.547 184.512 Q165.626 179.906 171.436 179.906 Z" fill="#000000" fill-rule="nonzero" fill-opacity="1" /><path clip-path="url(#clip060)" d="M201.598 183.61 Q197.987 183.61 196.158 187.174 Q194.352 190.716 194.352 197.846 Q194.352 204.952 196.158 208.517 Q197.987 212.058 201.598 212.058 Q205.232 212.058 207.037 208.517 Q208.866 204.952 208.866 197.846 Q208.866 190.716 207.037 187.174 Q205.232 183.61 201.598 183.61 M201.598 179.906 Q207.408 179.906 210.463 184.512 Q213.542 189.096 213.542 197.846 Q213.542 206.572 210.463 211.179 Q207.408 215.762 201.598 215.762 Q195.787 215.762 192.709 211.179 Q189.653 206.572 189.653 197.846 Q189.653 189.096 192.709 184.512 Q195.787 179.906 201.598 179.906 Z" fill="#000000" fill-rule="nonzero" fill-opacity="1" /><path clip-path="url(#clip060)" d="M39.7075 831.676 L37.6463 831.676 Q37.8396 828.713 37.8396 825.267 Q37.8396 824.011 37.6463 818.085 L39.7075 818.085 Q39.7075 821.853 41.4144 821.853 Q41.6721 821.853 42.5416 821.467 L60.9312 814.059 L44.1197 807.328 Q42.9925 806.942 42.5416 806.942 Q41.4144 806.942 40.6093 807.715 Q39.7719 808.455 39.7075 810.098 L37.6463 810.098 Q37.8396 806.749 37.8396 804.365 Q37.8396 801.66 37.6463 799.438 L39.7075 799.438 Q39.7075 801.402 40.6093 802.787 Q41.4788 804.172 42.2518 804.623 Q42.9925 805.042 44.1197 805.492 L65.5688 814.124 Q66.8248 814.639 66.8248 815.509 Q66.8248 816.088 66.5672 816.346 Q66.3417 816.571 65.5688 816.893 L42.1551 826.394 Q40.5126 827.038 40.1262 827.876 Q39.7075 828.713 39.7075 831.676 Z" fill="#000000" fill-rule="nonzero" fill-opacity="1" /><path clip-path="url(#clip060)" d="M59.804 793.936 Q54.2001 793.936 51.2372 787.334 Q49.337 783.373 48.854 775.193 L46.4385 775.193 Q42.3484 775.193 40.1906 777.35 Q38.0006 779.476 38.0006 782.181 Q38.0006 787.012 41.0279 789.331 Q41.0923 787.366 42.0907 786.658 Q43.0569 785.949 44.0553 785.949 Q45.3757 785.949 46.2453 786.787 Q47.0826 787.592 47.0826 788.977 Q47.0826 790.297 46.2775 791.167 Q45.4401 792.036 43.9909 792.036 Q40.7703 792.036 38.6447 789.138 Q36.5191 786.207 36.5191 782.052 Q36.5191 776.642 40.1584 773.035 Q41.2856 771.908 42.7348 771.36 Q44.1841 770.78 45.1503 770.716 Q46.0843 770.652 47.9522 770.652 L61.1244 770.652 Q61.5109 770.652 62.155 770.523 Q62.7991 770.394 63.6364 769.814 Q64.4416 769.202 64.4416 768.204 Q64.4416 765.821 60.2226 765.853 L56.519 765.853 L56.519 764.178 L60.2226 764.178 Q63.7331 764.178 65.1179 766.046 Q66.4706 767.882 66.4706 769.589 Q66.4706 771.779 64.8603 773.164 Q63.25 774.548 61.06 774.742 Q63.572 775.74 65.2145 778.027 Q66.8248 780.281 66.8248 783.373 Q66.8248 785.756 66.2129 788.011 Q65.6332 790.233 63.9907 792.101 Q62.316 793.936 59.804 793.936 M59.7395 788.848 Q62.1872 788.848 63.7653 787.109 Q65.3434 785.37 65.3434 782.922 Q65.3434 780.152 63.2178 777.672 Q61.06 775.193 56.841 775.193 L50.2388 775.193 Q50.4965 782.503 53.4272 785.692 Q56.3257 788.848 59.7395 788.848 Z" fill="#000000" fill-rule="nonzero" fill-opacity="1" /><path clip-path="url(#clip060)" d="M66.0841 762.856 L64.0551 762.856 Q64.0551 759.346 63.6364 758.541 Q63.1856 757.703 61.06 757.703 L43.379 757.703 Q40.9313 757.703 40.3194 758.573 Q39.7075 759.41 39.7075 762.856 L37.6463 762.856 L36.9378 753.678 L44.1841 753.678 Q41.35 752.744 39.16 750.779 Q36.9378 748.782 36.9378 745.562 Q36.9378 743.436 38.1294 742.084 Q39.321 740.699 40.9635 740.699 Q42.4128 740.699 43.1535 741.6 Q43.8621 742.47 43.8621 743.533 Q43.8621 744.724 43.1213 745.562 Q42.3484 746.367 41.0279 746.367 Q40.2228 746.367 39.6109 746.013 Q38.9668 745.626 38.7413 745.336 Q38.5159 745.046 38.4515 744.853 Q38.3871 744.982 38.3871 745.562 Q38.3871 749.201 42.0263 751.294 Q45.6334 753.356 50.7863 753.356 L60.9312 753.356 Q62.8313 753.356 63.4432 752.583 Q64.0551 751.778 64.0551 748.331 L64.0551 746.947 L66.0841 746.947 Q65.8909 749.588 65.8909 755.32 Q65.8909 756.125 65.9231 757.381 Q65.9553 758.637 66.0197 760.28 Q66.0841 761.922 66.0841 762.856 Z" fill="#000000" fill-rule="nonzero" fill-opacity="1" /><path clip-path="url(#clip060)" d="M49.5947 737.338 Q38.4515 737.338 29.466 733.183 Q25.6979 731.412 22.5418 728.932 Q19.3856 726.452 18.0007 724.809 Q16.6159 723.167 16.6159 722.716 Q16.6159 722.072 17.26 722.04 Q17.5821 722.04 18.3872 722.909 Q29.2084 733.537 49.5947 733.505 Q70.0454 733.505 80.4479 723.167 Q81.5751 722.04 81.9294 722.04 Q82.5735 722.04 82.5735 722.716 Q82.5735 723.167 81.2531 724.745 Q79.9326 726.323 76.9053 728.771 Q73.8779 731.218 70.1742 732.99 Q61.1888 737.338 49.5947 737.338 Z" fill="#000000" fill-rule="nonzero" fill-opacity="1" /><path clip-path="url(#clip060)" d="M23.0249 668.144 L34.4257 669.465 Q35.4563 669.561 35.7784 669.722 Q36.0682 669.884 36.0682 670.399 Q36.0682 670.785 35.8428 671.011 Q35.5851 671.204 35.2953 671.204 Q35.1343 671.204 34.7156 671.172 Q34.2969 671.14 34.1037 671.14 Q32.1069 670.85 30.5932 670.85 Q27.7913 670.85 26.2777 671.687 Q24.7318 672.524 24.0232 674.682 Q23.2825 676.84 23.2825 680.898 L23.2825 690.173 Q23.2825 692.299 23.669 692.814 Q24.0554 693.297 25.859 693.748 L41.7365 697.709 L41.7365 691.494 Q41.7365 689.175 41.4466 687.79 Q41.1568 686.373 40.3516 685.439 Q39.5143 684.473 38.3871 683.957 Q37.2598 683.41 35.2309 682.862 Q34.5546 682.701 34.2969 682.54 Q34.0393 682.347 34.0393 681.929 Q34.0393 681.606 34.2647 681.381 Q34.4579 681.156 34.7478 681.156 L50.1744 684.924 Q50.9473 685.117 51.2372 685.31 Q51.4948 685.503 51.4948 685.89 Q51.4948 686.309 51.2694 686.534 Q51.044 686.759 50.7863 686.759 Q50.5287 686.759 50.0456 686.566 Q47.9522 686.083 46.825 686.083 Q46.1809 686.083 45.8588 686.147 Q45.5368 686.18 45.0859 686.47 Q44.6028 686.727 44.3773 687.307 Q44.1519 687.887 43.9909 688.982 Q43.7976 690.077 43.7976 691.719 L43.7976 698.225 L61.8007 702.734 Q62.9923 703.056 63.3144 703.056 Q63.6687 703.056 63.7975 702.895 Q63.8941 702.701 63.9585 702.186 Q64.0551 701.606 64.0551 700.737 L64.0551 691.107 Q64.0551 688.982 63.8619 687.275 Q63.6687 685.568 63.1856 684.151 Q62.7025 682.701 62.155 681.606 Q61.6075 680.511 60.6091 679.481 Q59.5785 678.45 58.6767 677.742 Q57.7428 677.001 56.1647 676.131 Q54.5866 675.262 53.2984 674.65 Q51.9779 674.038 49.8523 673.104 Q49.0794 672.846 49.0794 672.235 Q49.0794 671.88 49.2726 671.687 Q49.4337 671.494 49.5947 671.462 L49.7879 671.462 Q50.3998 671.655 50.7219 671.784 L64.9569 677.838 Q65.762 678.193 65.9231 678.482 Q66.0841 678.772 66.0841 679.9 L66.0841 714.134 Q66.0841 714.907 66.0519 715.229 Q66.0197 715.519 65.8587 715.745 Q65.6654 715.97 65.2789 715.97 Q64.667 715.97 64.4094 715.712 Q64.1195 715.455 64.0873 715.165 Q64.0551 714.875 64.0551 714.134 Q64.0551 712.524 63.9585 711.558 Q63.8619 710.592 63.7331 709.98 Q63.572 709.336 63.1212 709.014 Q62.6703 708.659 62.2838 708.498 Q61.8651 708.337 60.9312 708.112 L26.0522 699.416 Q24.8606 699.094 24.4741 699.094 Q24.0554 699.094 23.7978 699.384 Q23.5402 699.642 23.4435 700.35 Q23.3147 701.059 23.3147 701.639 Q23.2825 702.186 23.2825 703.378 Q23.2825 704.151 23.2503 704.473 Q23.2181 704.762 23.0571 704.988 Q22.896 705.213 22.5418 705.213 Q21.64 705.213 21.4468 704.827 Q21.2213 704.408 21.2213 703.249 L21.2213 669.948 Q21.2213 668.627 21.5112 668.338 Q21.7688 668.016 23.0249 668.144 Z" fill="#000000" fill-rule="nonzero" fill-opacity="1" /><path clip-path="url(#clip060)" d="M81.9294 664.075 Q81.6073 664.075 80.8022 663.238 Q69.981 652.61 49.5947 652.61 Q29.144 652.61 18.8059 662.819 Q17.6143 664.075 17.26 664.075 Q16.6159 664.075 16.6159 663.431 Q16.6159 662.98 17.9363 661.402 Q19.2568 659.792 22.2841 657.377 Q25.3115 654.929 29.0151 653.125 Q38.0006 648.778 49.5947 648.778 Q60.7379 648.778 69.7234 652.932 Q73.4914 654.704 76.6476 657.183 Q79.8038 659.663 81.1886 661.306 Q82.5735 662.948 82.5735 663.431 Q82.5735 664.075 81.9294 664.075 Z" fill="#000000" fill-rule="nonzero" fill-opacity="1" /><polyline clip-path="url(#clip061)" style="stroke:#009af9; stroke-linecap:round; stroke-linejoin:round; stroke-width:4; stroke-opacity:1; fill:none" points="459.863,1399.31 480.896,1394 501.928,1388.07 522.96,1381.49 543.992,1374.24 565.024,1366.27 586.056,1357.55 607.088,1348.04 628.121,1337.67 649.153,1326.39 670.185,1314.14 691.217,1300.85 712.249,1286.45 733.281,1270.83 754.313,1253.87 775.346,1235.43 796.378,1215.32 817.41,1193.36 838.442,1169.37 859.474,1143.17 880.506,1114.64 901.538,1083.65 922.57,1050.12 943.603,1013.92 964.635,974.896 985.667,932.846 1006.7,887.508 1027.73,838.572 1048.76,785.67 1069.8,728.356 1090.83,666.11 1111.86,598.414 1132.89,524.93 1153.92,445.791 1174.96,362.032 1195.99,276.224 1217.02,193.281 1238.05,120.984 1259.08,69.225 1280.12,47.2441 1301.15,59.7742 1322.18,104.65 1343.21,173.764 1364.25,256.579 1385.28,343.68 1406.31,428.601 1427.34,507.884 1448.37,580.247 1469.41,645.639 1490.44,704.555 1511.47,757.651 1532.5,805.575 1553.53,848.911 1574.57,888.175 1595.6,923.822 1616.63,956.257 1637.66,985.844 1658.7,1012.91 1679.73,1037.73 1700.76,1060.58 1721.79,1081.66 1742.82,1101.18 1763.86,1119.31 1784.89,1136.19 1805.92,1151.95 1826.95,1166.69 1847.98,1180.51 1869.02,1193.48 1890.05,1205.69 1911.08,1217.18 1932.11,1228.02 1953.15,1238.24 1974.18,1247.89 1995.21,1257.01 2016.24,1265.63 2037.27,1273.78 2058.31,1281.49 2079.34,1288.78 2100.37,1295.68 2121.4,1302.21 2142.43,1308.38 2163.47,1314.23 2184.5,1319.77 2205.53,1325.01 2226.56,1329.98 2247.6,1334.68 2268.63,1339.13 2289.66,1343.35 2310.69,1347.34 2331.72,1351.13 2352.76,1354.71 "/>
</svg>
